<?xml version="1.0" standalone="no"?>
 <!DOCTYPE svg PUBLIC "-//W3C//DTD SVG 1.1//EN" 
 "http://www.w3.org/Graphics/SVG/1.1/DTD/svg11.dtd"> 
<svg xmlns="http://www.w3.org/2000/svg" version="1.1" 
    width="3.429cm" height="2.1844cm" viewBox="0 0 13500 8600 ">
<title>SVG Picture created as rx2402_display_breakout-B.Mask.svg date 2018/06/13 21:27:50 </title>
  <desc>Picture generated by PCBNEW </desc>
<g style="fill:#000000; fill-opacity:1;stroke:#000000; stroke-opacity:1;
stroke-linecap:round; stroke-linejoin:round; "
 transform="translate(0 0) scale(1 1)">
</g>
<g style="fill:#000000; fill-opacity:0.0; 
stroke:#000000; stroke-width:-0.000393701; stroke-opacity:1; 
stroke-linecap:round; stroke-linejoin:round;">
</g>
<g style="fill:#000000; fill-opacity:0.0; 
stroke:#000000; stroke-width:59.0551; stroke-opacity:1; 
stroke-linecap:round; stroke-linejoin:round;">
<path d="M13035 949
L35 949
" />
<path d="M13035 6449
L13035 949
" />
<path d="M35 6449
L13035 6449
" />
<path d="M35 949
L35 6449
" />
</g>
<g style="fill:#000000; fill-opacity:0.0; 
stroke:#000000; stroke-width:0; stroke-opacity:1; 
stroke-linecap:round; stroke-linejoin:round;">
</g>
<g style="fill:#000000; fill-opacity:1.0; 
stroke:#000000; stroke-width:0; stroke-opacity:1; 
stroke-linecap:round; stroke-linejoin:round;">
<polyline style="fill-rule:evenodd;"
points="3198,6112
2371,6112
2371,5285
3198,5285
3198,6112
" /> 
</g>
<g style="fill:#000000; fill-opacity:1.0; 
stroke:#000000; stroke-width:826.772; stroke-opacity:1; 
stroke-linecap:round; stroke-linejoin:round;">
</g>
<g style="fill:#000000; fill-opacity:0.0; 
stroke:#000000; stroke-width:826.772; stroke-opacity:1; 
stroke-linecap:round; stroke-linejoin:round;">
<path d="M2785 4699
L2785 4699
" />
<path d="M3785 5699
L3785 5699
" />
<path d="M3785 4699
L3785 4699
" />
<path d="M4785 5699
L4785 5699
" />
<path d="M4785 4699
L4785 4699
" />
<path d="M5785 5699
L5785 5699
" />
<path d="M5785 4699
L5785 4699
" />
<path d="M6785 5699
L6785 5699
" />
<path d="M6785 4699
L6785 4699
" />
<path d="M7785 5699
L7785 5699
" />
<path d="M7785 4699
L7785 4699
" />
<path d="M8785 5699
L8785 5699
" />
<path d="M8785 4699
L8785 4699
" />
<path d="M9785 5699
L9785 5699
" />
<path d="M9785 4699
L9785 4699
" />
<path d="M10785 5699
L10785 5699
" />
<path d="M10785 4699
L10785 4699
" />
</g>
<g style="fill:#000000; fill-opacity:0.0; 
stroke:#000000; stroke-width:0; stroke-opacity:1; 
stroke-linecap:round; stroke-linejoin:round;">
</g>
<g style="fill:#000000; fill-opacity:1.0; 
stroke:#000000; stroke-width:0; stroke-opacity:1; 
stroke-linecap:round; stroke-linejoin:round;">
<polyline style="fill-rule:evenodd;"
points="3058,2809
3511,2809
3511,3439
3058,3439
3058,2809
" /> 
<polyline style="fill-rule:evenodd;"
points="3058,3557
3511,3557
3511,4187
3058,4187
3058,3557
" /> 
<polyline style="fill-rule:evenodd;"
points="6596,4925
6596,4472
7226,4472
7226,4925
6596,4925
" /> 
<polyline style="fill-rule:evenodd;"
points="7344,4925
7344,4472
7974,4472
7974,4925
7344,4925
" /> 
<polyline style="fill-rule:evenodd;"
points="4058,2806
4511,2806
4511,3436
4058,3436
4058,2806
" /> 
<polyline style="fill-rule:evenodd;"
points="4058,3554
4511,3554
4511,4184
4058,4184
4058,3554
" /> 
<polyline style="fill-rule:evenodd;"
points="5011,4188
4558,4188
4558,3558
5011,3558
5011,4188
" /> 
<polyline style="fill-rule:evenodd;"
points="5011,3440
4558,3440
4558,2810
5011,2810
5011,3440
" /> 
<polyline style="fill-rule:evenodd;"
points="8558,4510
9011,4510
9011,5140
8558,5140
8558,4510
" /> 
<polyline style="fill-rule:evenodd;"
points="8558,5258
9011,5258
9011,5888
8558,5888
8558,5258
" /> 
<polyline style="fill-rule:evenodd;"
points="3558,2810
4011,2810
4011,3440
3558,3440
3558,2810
" /> 
<polyline style="fill-rule:evenodd;"
points="3558,3558
4011,3558
4011,4188
3558,4188
3558,3558
" /> 
<polyline style="fill-rule:evenodd;"
points="5511,4188
5058,4188
5058,3558
5511,3558
5511,4188
" /> 
<polyline style="fill-rule:evenodd;"
points="5511,3440
5058,3440
5058,2810
5511,2810
5511,3440
" /> 
<polyline style="fill-rule:evenodd;"
points="10011,5888
9558,5888
9558,5258
10011,5258
10011,5888
" /> 
<polyline style="fill-rule:evenodd;"
points="10011,5140
9558,5140
9558,4510
10011,4510
10011,5140
" /> 
<polyline style="fill-rule:evenodd;"
points="8270,3852
8270,3025
8939,3025
8939,3852
8270,3852
" /> 
<polyline style="fill-rule:evenodd;"
points="9648,3852
9648,3025
10317,3025
10317,3852
9648,3852
" /> 
<polyline style="fill-rule:evenodd;"
points="7631,4174
7119,4174
7119,3544
7631,3544
7631,4174
" /> 
<polyline style="fill-rule:evenodd;"
points="7631,3307
7119,3307
7119,2678
7631,2678
7631,3307
" /> 
<polyline style="fill-rule:evenodd;"
points="6089,2688
6601,2688
6601,3317
6089,3317
6089,2688
" /> 
<polyline style="fill-rule:evenodd;"
points="6089,3554
6601,3554
6601,4184
6089,4184
6089,3554
" /> 
<polyline style="fill-rule:evenodd;"
points="10896,3852
10384,3852
10384,3222
10896,3222
10896,3852
" /> 
<polyline style="fill-rule:evenodd;"
points="10896,2986
10384,2986
10384,2356
10896,2356
10896,2986
" /> 
<polyline style="fill-rule:evenodd;"
points="5549,2691
6061,2691
6061,3321
5549,3321
5549,2691
" /> 
<polyline style="fill-rule:evenodd;"
points="5549,3557
6061,3557
6061,4187
5549,4187
5549,3557
" /> 
<polyline style="fill-rule:evenodd;"
points="8171,4174
7659,4174
7659,3544
8171,3544
8171,4174
" /> 
<polyline style="fill-rule:evenodd;"
points="8171,3307
7659,3307
7659,2678
8171,2678
8171,3307
" /> 
<polyline style="fill-rule:evenodd;"
points="4041,5947
3529,5947
3529,5317
4041,5317
4041,5947
" /> 
<polyline style="fill-rule:evenodd;"
points="4041,5081
3529,5081
3529,4451
4041,4451
4041,5081
" /> 
<polyline style="fill-rule:evenodd;"
points="4529,4451
5041,4451
5041,5081
4529,5081
4529,4451
" /> 
<polyline style="fill-rule:evenodd;"
points="4529,5317
5041,5317
5041,5947
4529,5947
4529,5317
" /> 
<polyline style="fill-rule:evenodd;"
points="9191,1455
10018,1455
10018,2282
9191,2282
9191,1455
" /> 
</g>
<g style="fill:#000000; fill-opacity:1.0; 
stroke:#000000; stroke-width:826.772; stroke-opacity:1; 
stroke-linecap:round; stroke-linejoin:round;">
</g>
<g style="fill:#000000; fill-opacity:0.0; 
stroke:#000000; stroke-width:826.772; stroke-opacity:1; 
stroke-linecap:round; stroke-linejoin:round;">
<path d="M8605 1869
L8605 1869
" />
<path d="M7605 1869
L7605 1869
" />
<path d="M6605 1869
L6605 1869
" />
<path d="M5605 1869
L5605 1869
" />
<path d="M4605 1869
L4605 1869
" />
</g>
<g style="fill:#000000; fill-opacity:0.0; 
stroke:#000000; stroke-width:0; stroke-opacity:1; 
stroke-linecap:round; stroke-linejoin:round;">
</g>
<g style="fill:#000000; fill-opacity:1.0; 
stroke:#000000; stroke-width:0; stroke-opacity:1; 
stroke-linecap:round; stroke-linejoin:round;">
<polyline style="fill-rule:evenodd;"
points="12675,4908
12202,4908
12202,4396
12675,4396
12675,4908
" /> 
<polyline style="fill-rule:evenodd;"
points="11927,4908
11454,4908
11454,4396
11927,4396
11927,4908
" /> 
<polyline style="fill-rule:evenodd;"
points="12301,4121
11828,4121
11828,3609
12301,3609
12301,4121
" /> 
<polyline style="fill-rule:evenodd;"
points="11491,3855
10979,3855
10979,3225
11491,3225
11491,3855
" /> 
<polyline style="fill-rule:evenodd;"
points="11491,2989
10979,2989
10979,2359
11491,2359
11491,2989
" /> 
<polyline style="fill-rule:evenodd;"
points="12806,4973
12806,5485
12176,5485
12176,4973
12806,4973
" /> 
<polyline style="fill-rule:evenodd;"
points="11940,4973
11940,5485
11310,5485
11310,4973
11940,4973
" /> 
<polyline style="fill-rule:evenodd;"
points="11751,1445
12578,1445
12578,2272
11751,2272
11751,1445
" /> 
</g>
<g style="fill:#000000; fill-opacity:1.0; 
stroke:#000000; stroke-width:826.772; stroke-opacity:1; 
stroke-linecap:round; stroke-linejoin:round;">
</g>
<g style="fill:#000000; fill-opacity:0.0; 
stroke:#000000; stroke-width:826.772; stroke-opacity:1; 
stroke-linecap:round; stroke-linejoin:round;">
<path d="M12165 2859
L12165 2859
" />
</g>
<g style="fill:#000000; fill-opacity:0.0; 
stroke:#000000; stroke-width:0; stroke-opacity:1; 
stroke-linecap:round; stroke-linejoin:round;">
</g>
<g style="fill:#000000; fill-opacity:1.0; 
stroke:#000000; stroke-width:0; stroke-opacity:1; 
stroke-linecap:round; stroke-linejoin:round;">
<polyline style="fill-rule:evenodd;"
points="6638,2806
7091,2806
7091,3436
6638,3436
6638,2806
" /> 
<polyline style="fill-rule:evenodd;"
points="6638,3554
7091,3554
7091,4184
6638,4184
6638,3554
" /> 
<circle cx="2490.16" cy="3674.14" r="397.638" /> 
</g>
<g style="fill:#000000; fill-opacity:1.0; 
stroke:#000000; stroke-width:39.3701; stroke-opacity:1; 
stroke-linecap:round; stroke-linejoin:round;">
</g>
<g style="fill:#000000; fill-opacity:1.0; 
stroke:#000000; stroke-width:0; stroke-opacity:1; 
stroke-linecap:round; stroke-linejoin:round;">
<circle cx="521.654" cy="2689.89" r="397.638" /> 
</g>
<g style="fill:#000000; fill-opacity:1.0; 
stroke:#000000; stroke-width:39.3701; stroke-opacity:1; 
stroke-linecap:round; stroke-linejoin:round;">
</g>
<g style="fill:#000000; fill-opacity:1.0; 
stroke:#000000; stroke-width:0; stroke-opacity:1; 
stroke-linecap:round; stroke-linejoin:round;">
<circle cx="2490.16" cy="1705.64" r="397.638" /> 
</g>
<g style="fill:#000000; fill-opacity:1.0; 
stroke:#000000; stroke-width:39.3701; stroke-opacity:1; 
stroke-linecap:round; stroke-linejoin:round;">
</g> 
</svg>
