<?xml version="1.0" encoding="UTF-8" standalone="no"?>
<svg
   width="2160.00"
   height="2160.00"
   viewBox="0.00 0.00 2160.00 2160.00"
   version="1.1"
   id="svg309"
   sodipodi:docname="haj.svg"
   inkscape:version="1.1.2 (1:1.1+202202050852+0a00cf5339)"
   xmlns:inkscape="http://www.inkscape.org/namespaces/inkscape"
   xmlns:sodipodi="http://sodipodi.sourceforge.net/DTD/sodipodi-0.dtd"
   xmlns="http://www.w3.org/2000/svg"
   xmlns:svg="http://www.w3.org/2000/svg">
  <defs
     id="defs313" />
  <sodipodi:namedview
     id="namedview311"
     pagecolor="#ffffff"
     bordercolor="#666666"
     borderopacity="1.0"
     inkscape:pageshadow="2"
     inkscape:pageopacity="0.0"
     inkscape:pagecheckerboard="0"
     showgrid="false"
     inkscape:zoom="0.47074979"
     inkscape:cx="710.56856"
     inkscape:cy="1226.7663"
     inkscape:window-width="2214"
     inkscape:window-height="1475"
     inkscape:window-x="42"
     inkscape:window-y="0"
     inkscape:window-maximized="1"
     inkscape:current-layer="svg309" />
  <path
     d="m 956.68,901.59 c 0,0 -0.13,-0.34 -0.13,-0.34 -1.05,-0.17 -2.92,1.02 -3.91,2.78 -0.38,0.68 -0.74,3.34 -0.9,4.4 1.37,-1.47 2.26,-5.71 1.73,-9 0,0 -0.36,4.22 -0.36,4.22 0,0 1.48,-2.39 1.48,-2.39 0,0 0.36,3.24 0.36,3.24 0,0 1.19,-3.45 1.19,-3.45 0,0 -1.15,2.07 -1.15,2.07"
     fill="none"
     stroke="#838383"
     stroke-width="20"
     stroke-opacity="1"
     stroke-linejoin="round"
     id="path2"
     style="stroke-linecap:round;stroke-width:12;stroke-miterlimit:4;stroke-dasharray:none" />
  <path
     d="m 955.74,843.14 c 0,0 -0.09,-0.11 -0.09,-0.11 -1.06,0.95 -1.67,1.6 -2.9,3.19 -5.48,7.05 -13.04,19.42 -15.16,24.76 -1.26,3.22 -3.01,10.04 -3.59,13.83 -1.02,6.9 -0.67,24.47 0.88,31.66 1,4.47 2.7,9.55 4.39,12.1 2.68,3.95 6.53,7.75 9.99,9.46 1.47,0.69 5.02,1.74 6.47,1.86 3.48,0.22 9.59,-1.84 13.63,-4.27 2.34,-1.46 5.56,-4.62 7.85,-7.81 5.69,-8.05 11.07,-18.8 13.25,-26.03 2.09,-7.04 3.74,-21.31 2.94,-27.63 -0.45,-3.42 -2.36,-10.75 -3.66,-13.75 -1.31,-2.97 -4.63,-8.32 -7.13,-10.6 -2.61,-2.33 -8.45,-5.48 -11.64,-6.34 -3,-0.77 -7.84,-0.32 -11.17,0.32 -2.22,0.47 -6.04,3.62 -8.71,6.36 -1.4,1.47 -3.04,4.16 -3.82,6.21 -0.19,0.53 -0.43,1.37 -0.72,2.52"
     fill="none"
     stroke="#838383"
     stroke-width="20"
     stroke-opacity="1"
     stroke-linejoin="round"
     id="path4"
     style="stroke-linecap:round;stroke-width:12;stroke-miterlimit:4;stroke-dasharray:none" />
  <path
     d="m 736.98,1348.9 c 0,0 0.31,0.17 0.31,0.17 -0.08,-1.71 -0.18,-2.67 -0.54,-4.61 -2.76,-15.55 -9.23,-53.15 -10.16,-61.11 -0.48,-4.43 -1.35,-20.69 -1.61,-27.59 -0.08,-7.27 0.07,-20.93 0.43,-28.73 0.72,-10.65 2.23,-22.35 3.29,-29.31 1.75,-10.73 10.75,-44.15 15.05,-59.82 4.74,-17.09 15.16,-54.84 17.32,-61.17 5.04,-14.06 16.97,-48.48 18.86,-55.64 3.73,-14.59 26.83,-82.51 34.49,-104.71 2.38,-7.22 4.25,-14.77 4.57,-16.07"
     fill="none"
     stroke="#838383"
     stroke-width="20"
     stroke-opacity="1"
     stroke-linejoin="round"
     id="path6"
     style="stroke-linecap:round;stroke-width:12;stroke-miterlimit:4;stroke-dasharray:none" />
  <path
     d="m 813.42,918.9 c 0,0 0.5,0.09 0.5,0.09 0.82,-1.19 6.72,-17.73 11.89,-32.21 2.84,-7.98 9.28,-25.55 10.93,-29.42 6.24,-13.16 16.69,-40.4 22.39,-54.91 1.1,-2.65 9.31,-21.64 10.79,-25.69 1.78,-4.88 4.73,-14.59 8.36,-23.96 2.97,-7.23 10.03,-23.7 12.71,-29.24 3.63,-7.17 11.15,-20.87 14.75,-27.05 4.53,-7.39 14.29,-21.53 17.55,-25.84 8.64,-10.89 23.81,-30.13 34.17,-44.85 2.33,-3.21 6.67,-8.15 9.75,-10.38 3.72,-2.65 9.5,-6.52 11.15,-7.85 4.2,-3.4 16.68,-16.45 22.36,-20.86 3.15,-2.42 17.73,-12.11 24.15,-16.68 6.69,-4.95 19,-14.54 24.64,-19.6 3.27,-2.92 16.29,-11.1 22.45,-14.9 7.91,-4.85 22.9,-13.55 28.77,-15.04 4.1,-1.02 21.8,-5.01 29.35,-6.78 11.27,-2.83 18.35,-4.35 27.4,-4.17 1.58,0.03 24.04,0.95 32.32,1.24 11.65,0.38 18.28,1.06 23.46,2.47 0,0 -0.41,5.12 -0.41,5.12"
     fill="none"
     stroke="#838383"
     stroke-width="20"
     stroke-opacity="1"
     stroke-linejoin="round"
     id="path8"
     style="stroke-linecap:round;stroke-width:12;stroke-miterlimit:4;stroke-dasharray:none" />
  <path
     d="m 1211.86,509.39 c 0,0 -1.77,-0.07 -1.77,-0.07 2.99,0.35 5.96,1.24 10.71,3.16 15.52,6.7 54.85,24 59.67,26.96 10.03,6.19 21.99,17.07 43.7,38.01 6.22,5.76 20.56,18.26 22.24,19.79 4.41,4.06 10.06,11.54 16.82,20.9 4.36,6.16 15.56,22.46 17.39,25.49 4.09,6.79 22.74,48.29 25.87,57.1 1.47,4.15 4.29,13.34 4.59,14.63 0.87,3.86 0.85,7.59 0.86,8.57"
     fill="none"
     stroke="#838383"
     stroke-width="20"
     stroke-opacity="1"
     stroke-linejoin="round"
     id="path10"
     style="stroke-linecap:round;stroke-width:12;stroke-miterlimit:4;stroke-dasharray:none" />
  <path
     d="m 1406.33,698.41 c 0,0 -0.1,-0.53 -0.1,-0.53 -0.29,0.81 -0.39,2.11 -0.21,4.14 0.33,3.62 1.66,9.32 3.66,14.85 2.71,7.08 9.31,24.53 10.58,28.67 1.92,6.3 3.98,20.21 5,28.92 1.67,16.1 5.54,55 6.12,62.87 0.65,13.39 -0.18,43.65 -0.91,58.37 -0.43,14.5 -0.12,44.73 0.58,59.99 0.45,7.13 1.95,23.84 2.25,28.27 0.4,6.91 -0.18,17.52 -0.24,18.75"
     fill="none"
     stroke="#838383"
     stroke-width="20"
     stroke-opacity="1"
     stroke-linejoin="round"
     id="path12"
     style="stroke-linecap:round;stroke-width:12;stroke-miterlimit:4;stroke-dasharray:none" />
  <path
     d="m 1435.29,974.94 c 0.07,-0.14 0.17,1.59 0.24,2.96 0.96,13.85 4.85,33.53 7.74,56.73 3.88,33.62 10.07,87.26 11.05,91.29 1.03,4.22 6.72,21.74 9.36,29.53 3.47,9.79 7.24,19.03 10.27,23.9 1.68,2.68 11.35,16.1 14.97,20.32 2.58,2.99 15.84,16.35 21.5,21.97 7.55,7.84 15.79,17.2 20.42,22.98 4.22,5.42 12.55,16.41 16.66,21.97 6.36,8.94 20.53,33.96 24.29,40.79 1.02,1.86 1.61,3.27 2,4.84 0.09,0.34 0.2,0.88 0.34,1.63"
     fill="none"
     stroke="#838383"
     stroke-width="20"
     stroke-opacity="1"
     stroke-linejoin="round"
     id="path14"
     style="stroke-linecap:round;stroke-width:12;stroke-miterlimit:4;stroke-dasharray:none" />
  <path
     d="m 1053,1173.84 c 0.1,-0.29 0.16,-0.57 0.18,-0.83 0.02,-0.31 0.35,-22.92 0.5,-31.67 0.35,-8.27 1.53,-23.92 2,-27.43 1.12,-7.7 3.99,-18.47 6.93,-28.05 2.39,-7.47 7.46,-22.82 10.16,-30.32 5.79,-15.41 21.91,-48.08 23.66,-51.88 2.59,-5.41 38.94,-61.65 40.9,-63.87 10.99,-11.7 35.88,-38.08 40.2,-41.97 3.3,-2.91 9.01,-7.96 11.43,-10.09"
     fill="none"
     stroke="#838383"
     stroke-width="20"
     stroke-opacity="1"
     stroke-linejoin="round"
     id="path16"
     style="stroke-linecap:round;stroke-width:12;stroke-miterlimit:4;stroke-dasharray:none" />
  <path
     d="m 1171.47,906.02 c 1.76,-0.55 4.97,-3.06 7.71,-5.62 8.22,-7.78 16.61,-14.77 22.92,-18.79 9.86,-6.24 39.03,-20.64 51.28,-26.11 6.99,-2.93 21.42,-8.54 28.98,-11.43 9.3,-3.38 20.53,-6.58 27.74,-8.19 10.76,-2.32 23.09,-4.18 29.21,-4.18 6.42,0.05 21.19,3.93 28.66,6.77 8.19,3.13 24.58,10.93 28.7,13.53 6.45,4.12 14.26,11.91 22.15,21.16 4.52,5.17 14.95,17.17 16.15,19.79 0.57,1.29 1.28,3.64 1.61,5.1"
     fill="none"
     stroke="#838383"
     stroke-width="20"
     stroke-opacity="1"
     stroke-linejoin="round"
     id="path18"
     style="stroke-linecap:round;stroke-width:12;stroke-miterlimit:4;stroke-dasharray:none" />
  <path
     d="m 1061.69,1109.29 c 0,0 -1.65,1.19 -1.65,1.19 1.23,0.56 3.14,1.29 4.08,1.39 1.14,0.09 3.92,-0.74 5.13,-1.56 2.76,-1.96 6.11,-8.02 6.87,-11.63 0.59,-3.12 -0.37,-9.37 -1.54,-12.03 -0.94,-2.06 -4.48,-6.31 -7.02,-8.82 -1.26,-1.24 -3.35,-3.27 -4.18,-4.08"
     fill="none"
     stroke="#838383"
     stroke-width="20"
     stroke-opacity="1"
     stroke-linejoin="round"
     id="path20"
     style="stroke-linecap:round;stroke-width:12;stroke-miterlimit:4;stroke-dasharray:none" />
  <path
     d="m 1070.95,1071.11 c 2.16,1.34 4.22,2.44 6.02,3.08 2.25,0.76 5.73,1.12 7.35,0.57 1.73,-0.64 3.76,-2.75 4.33,-4.38 1,-3.2 1.45,-9.88 0.94,-13.47 -0.51,-3.31 -3.24,-9.51 -4.88,-11.61 -1.19,-1.51 -3.77,-4.23 -5.44,-5.84"
     fill="none"
     stroke="#838383"
     stroke-width="20"
     stroke-opacity="1"
     stroke-linejoin="round"
     id="path22"
     style="stroke-linecap:round;stroke-width:12;stroke-miterlimit:4;stroke-dasharray:none" />
  <path
     d="m 1085.64,1034.82 c 0.29,-0.61 0.56,-0.87 0.82,-0.79 0.09,0.03 4.47,3.72 6.11,4.75 1.08,0.67 4.14,1.65 5.57,2.06 1.68,0.48 4.16,0.34 5.78,-0.32 0.61,-0.27 4.41,-4.22 5.5,-7.4 0.52,-1.6 2.29,-9.93 2.55,-13.05 0.24,-3.18 -0.24,-10.08 -0.7,-12.69 -0.61,-3.26 -2.59,-8.59 -4.79,-11.4 -0.74,-0.93 -1.3,-1.55 -1.69,-1.88 -0.17,-0.14 -0.34,-0.16 -0.49,-0.08"
     fill="none"
     stroke="#838383"
     stroke-width="20"
     stroke-opacity="1"
     stroke-linejoin="round"
     id="path24"
     style="stroke-linecap:round;stroke-width:12;stroke-miterlimit:4;stroke-dasharray:none" />
  <path
     d="m 1111.67,990.82 c 0,0 0.27,-0.31 0.27,-0.31 1.37,0.89 11.09,9.38 14.82,12.37 1.71,1.32 5.42,3 7.28,3.12 1.31,0.06 3.81,-1.79 4.47,-2.79 2.31,-3.88 4.9,-21.32 4.92,-23.45 0.01,-2.71 -1.27,-11.01 -2.06,-14.13 -1,-3.83 -3.86,-8.46 -6.04,-10.55 -0.93,-0.86 -2.49,-2.07 -3.36,-2.65"
     fill="none"
     stroke="#838383"
     stroke-width="20"
     stroke-opacity="1"
     stroke-linejoin="round"
     id="path26"
     style="stroke-linecap:round;stroke-width:12;stroke-miterlimit:4;stroke-dasharray:none" />
  <path
     d="m 1140.68,945.03 c 3.08,3.66 6.23,6.99 9.45,9.07 3.07,1.95 8.72,4.37 12.74,5.5 1.74,0.46 4.41,0.57 5.78,-0.05 2.73,-1.31 5.97,-6.62 7.25,-9.7 1.92,-4.66 3.85,-10.56 4.45,-14.14 0.5,-3.11 0.75,-10.42 0.3,-13.36 -0.46,-2.84 -2.96,-9.14 -3.21,-9.73 -0.11,-0.26 -0.28,-0.72 -0.5,-1.39"
     fill="none"
     stroke="#838383"
     stroke-width="20"
     stroke-opacity="1"
     stroke-linejoin="round"
     id="path28"
     style="stroke-linecap:round;stroke-width:12;stroke-miterlimit:4;stroke-dasharray:none" />
  <path
     d="m 1177.83,905.33 c 0,0 0.37,-0.35 0.37,-0.35 1.08,1.52 1.66,2.47 2.07,3.48 1.41,3.39 10.26,14.68 13.56,18.43 1.55,1.72 4.67,4.03 6.38,4.55 0.94,0.26 5.46,-0.78 6.21,-1.03 1.89,-0.71 4.23,-2.32 5.75,-4 2.34,-2.63 5.55,-8.42 6.44,-10.57 0.98,-2.43 2.57,-8.25 2.9,-11.12 0.32,-2.84 0.44,-9.5 -0.28,-12.92 -0.39,-1.83 -2.58,-8.59 -2.64,-9.33 -0.04,-0.5 0,-1.59 0.12,-3.25"
     fill="none"
     stroke="#838383"
     stroke-width="20"
     stroke-opacity="1"
     stroke-linejoin="round"
     id="path30"
     style="stroke-linecap:round;stroke-width:12;stroke-miterlimit:4;stroke-dasharray:none" />
  <path
     d="m 1225.47,878.19 c 1.16,1.93 1.82,2.94 3.08,4.76 4.59,6.6 14.38,20.47 17.61,22.58 1.64,1.02 5.27,2.76 6.83,3.17 1.49,0.36 5.26,0.37 6.63,0 2.88,-0.85 7.68,-5.02 9.93,-7.95 1.72,-2.29 4.69,-7.61 5.61,-9.95 2.12,-5.44 3.62,-18.56 3.22,-23 -0.44,-4.48 -3.24,-14.66 -3.61,-15.19 -0.3,-0.42 -1.16,-1.31 -2.56,-2.69"
     fill="none"
     stroke="#838383"
     stroke-width="20"
     stroke-opacity="1"
     stroke-linejoin="round"
     id="path32"
     style="stroke-linecap:round;stroke-width:12;stroke-miterlimit:4;stroke-dasharray:none" />
  <path
     d="m 1278.17,850.54 c 2.54,2.21 10.07,8.74 11.54,9.94 3.56,2.89 9.66,7.01 12.6,7.52 1.44,0.21 4.29,-0.37 5.48,-1.13 2.29,-1.55 7.24,-7.58 8.47,-9.42 1.94,-2.95 3.97,-8.95 4.87,-13.19 0.31,-1.54 0.3,-2.85 0,-4.61 -0.58,-3.33 -1.37,-7.9 -1.58,-9.14"
     fill="none"
     stroke="#838383"
     stroke-width="20"
     stroke-opacity="1"
     stroke-linejoin="round"
     id="path34"
     style="stroke-linecap:round;stroke-width:12;stroke-miterlimit:4;stroke-dasharray:none" />
  <path
     d="m 1325.88,840.99 c 1.35,1.98 4,7.53 6.55,13.57 2.58,6.03 5.46,11.26 7.44,11.95 1.26,0.36 4.06,0.32 5.36,-0.18 2.65,-1.06 7.84,-5.73 10.03,-8.53 1.8,-2.39 4.35,-8.3 4.81,-11.59 0.19,-1.49 0,-4.07 -0.16,-5.77 -0.03,-0.68 -0.02,-2.01 0.03,-3.99"
     fill="none"
     stroke="#838383"
     stroke-width="20"
     stroke-opacity="1"
     stroke-linejoin="round"
     id="path36"
     style="stroke-linecap:round;stroke-width:12;stroke-miterlimit:4;stroke-dasharray:none" />
  <path
     d="m 1359.29,849.09 c 0,0 0.2,-2.92 0.2,-2.92 0.37,3.33 1.35,8.26 2.49,11.86 1.08,3.27 4.98,8.51 7.54,9.65 1.37,0.55 3.35,0.31 4.61,-0.54 1.07,-0.79 3.08,-3.18 3.73,-4.55 1.37,-2.96 2.93,-12.84 2.8,-14.71 -0.12,-1.7 -0.79,-3.73 -1.35,-4.64"
     fill="none"
     stroke="#838383"
     stroke-width="20"
     stroke-opacity="1"
     stroke-linejoin="round"
     id="path38"
     style="stroke-linecap:round;stroke-width:12;stroke-miterlimit:4;stroke-dasharray:none" />
  <path
     d="m 1383.63,852.05 c 4.44,11.28 7.25,17.62 8.69,19.16 1.03,1.05 3.33,2.52 4.34,2.63 1.63,0.13 7.89,-2.87 9.97,-5.01 0.69,-0.72 2.95,-3.88 3.59,-4.94 0.88,-1.52 1.22,-3.92 0.8,-5.49 -0.12,-0.41 -0.4,-1.02 -0.86,-1.84"
     fill="none"
     stroke="#838383"
     stroke-width="20"
     stroke-opacity="1"
     stroke-linejoin="round"
     id="path40"
     style="stroke-linecap:round;stroke-width:12;stroke-miterlimit:4;stroke-dasharray:none" />
  <path
     d="m 1406.33,866.15 c -0.17,1.36 -0.37,3.48 -0.42,4.87 -0.09,4.3 1.19,9.29 3.02,13.09 3.06,0.42 4.67,0.23 5.69,-1 1.67,-2.02 4.35,-6.98 5.22,-10.34"
     fill="none"
     stroke="#838383"
     stroke-width="20"
     stroke-opacity="1"
     stroke-linejoin="round"
     id="path42"
     style="stroke-linecap:round;stroke-width:12;stroke-miterlimit:4;stroke-dasharray:none" />
  <path
     d="m 1052.9,1169.56 c 1.66,0.3 5.82,-1.69 7.68,-3.51 2.52,-2.53 13.98,-18.38 18.98,-25.34 6.85,-9.01 27.91,-33.67 37.91,-45.2 9.92,-11.58 29.38,-34.34 38.76,-43.49 0.83,-0.8 1.4,-1.36 1.73,-1.68 0.91,-0.93 1.82,-1.86 2.73,-2.79"
     fill="none"
     stroke="#838383"
     stroke-width="20"
     stroke-opacity="1"
     stroke-linejoin="round"
     id="path44"
     style="stroke-linecap:round;stroke-width:12;stroke-miterlimit:4;stroke-dasharray:none" />
  <path
     d="m 1149.86,1057.09 c 0.75,-0.41 1.26,-0.71 1.54,-0.92 0.35,-0.26 37.8,-34.33 47.03,-42.24 7.41,-6.21 17.3,-13.04 23.59,-16.51 5.79,-3.18 19.96,-9.74 26.98,-12.98 10.04,-4.91 22.91,-11.98 25.77,-13.43 5.72,-2.87 22.31,-9.45 30.43,-12.39 7.41,-2.59 21.14,-7.28 27.83,-8.52 10.71,-1.86 19.38,-2.98 30.74,-3.99 4.78,-0.39 23.96,-0.87 28.01,-0.48 5.38,0.54 14.98,4.52 28.01,10.26 10.1,4.47 11.6,5.2 11.83,5.61 0.13,0.25 0.23,0.84 0.29,1.79"
     fill="none"
     stroke="#838383"
     stroke-width="20"
     stroke-opacity="1"
     stroke-linejoin="round"
     id="path46"
     style="stroke-linecap:round;stroke-width:12;stroke-miterlimit:4;stroke-dasharray:none" />
  <path
     d="m 1088.62,1125.02 c 0.06,0.23 0.35,0.51 0.39,0.64 0,0.01 0,0.01 0,0 0.2,-2.46 1.65,-9.45 2.8,-12.85 1.22,-3.41 6.02,-7.88 9.18,-9.36"
     fill="none"
     stroke="#838383"
     stroke-width="20"
     stroke-opacity="1"
     stroke-linejoin="round"
     id="path48"
     style="stroke-linecap:round;stroke-width:12;stroke-miterlimit:4;stroke-dasharray:none" />
  <path
     d="m 1104.83,1101.53 c 1.67,-6.05 3.31,-11.2 5.02,-14.09 0.92,-1.48 2.87,-3.5 4.11,-4.21 1.85,-1.01 8.5,-1.8 10.58,-1.36 0.29,0.06 0.69,0.18 1.18,0.34"
     fill="none"
     stroke="#838383"
     stroke-width="20"
     stroke-opacity="1"
     stroke-linejoin="round"
     id="path50"
     style="stroke-linecap:round;stroke-width:12;stroke-miterlimit:4;stroke-dasharray:none" />
  <path
     d="m 1124.68,1077.98 c 0,0 0.93,0.22 0.93,0.22 0.92,-3.27 3.63,-12.7 4.01,-13.83 1.23,-3.54 4.75,-7.78 6.18,-8.87 2.08,-1.56 8.69,-3.19 10.41,-2.77 0.37,0.09 0.99,0.41 1.87,0.96"
     fill="none"
     stroke="#838383"
     stroke-width="20"
     stroke-opacity="1"
     stroke-linejoin="round"
     id="path52"
     style="stroke-linecap:round;stroke-width:12;stroke-miterlimit:4;stroke-dasharray:none" />
  <path
     d="m 1145.24,1053.79 c 0.47,-0.02 0.78,-0.13 0.94,-0.32 0.12,-0.16 7.06,-17.4 8.96,-20.49 1.82,-2.87 7.38,-6.43 11.39,-7.84 3.99,-1.36 11.34,-3.08 12.02,-3.25 0.2,-0.04 0.44,-0.13 0.72,-0.25"
     fill="none"
     stroke="#838383"
     stroke-width="20"
     stroke-opacity="1"
     stroke-linejoin="round"
     id="path54"
     style="stroke-linecap:round;stroke-width:12;stroke-miterlimit:4;stroke-dasharray:none" />
  <path
     d="m 1154.83,1056.1 c 0,0 -0.32,1.02 -0.32,1.02 0.16,-0.25 0.32,-0.51 0.49,-0.8 2.39,-4.41 5.98,-10.64 7.08,-12.05 3.01,-3.81 14.46,-14.17 16.8,-16.27 0,0 -6.56,8.73 -6.56,8.73"
     fill="none"
     stroke="#838383"
     stroke-width="20"
     stroke-opacity="1"
     stroke-linejoin="round"
     id="path56"
     style="stroke-linecap:round;stroke-width:12;stroke-miterlimit:4;stroke-dasharray:none" />
  <path
     d="m 1175.05,1031.82 c 0,0 -0.77,0.94 -0.77,0.94 0.56,-1.32 3.97,-10.06 5.27,-13.45 1.53,-3.92 4.8,-12.22 6.43,-14.83 0.56,-0.87 3.05,-3.17 3.81,-3.74 1.37,-0.94 3.55,-1.7 5.13,-1.7 2.71,0.06 11.67,2.24 12.93,2.94 1.26,0.71 2.45,2.02 2.82,2.85"
     fill="none"
     stroke="#838383"
     stroke-width="20"
     stroke-opacity="1"
     stroke-linejoin="round"
     id="path58"
     style="stroke-linecap:round;stroke-width:12;stroke-miterlimit:4;stroke-dasharray:none" />
  <path
     d="m 1211.11,1000.85 c 0.61,-0.59 1.12,-1.19 2.35,-2.78 6.82,-8.76 13.27,-15.82 18.31,-19.17 3.53,-2.31 9.49,-5.05 12.47,-5.43 4.61,-0.52 14.34,1.52 14.81,1.33 0.31,-0.13 0.84,-0.62 1.59,-1.48"
     fill="none"
     stroke="#838383"
     stroke-width="20"
     stroke-opacity="1"
     stroke-linejoin="round"
     id="path60"
     style="stroke-linecap:round;stroke-width:12;stroke-miterlimit:4;stroke-dasharray:none" />
  <path
     d="m 1260.94,972.68 c 0.27,0.22 0.5,0.28 0.67,0.16 0.14,-0.09 7.21,-8.83 9.12,-11.06 2.93,-3.39 6.53,-6.15 9.94,-7.5 5.95,-2.26 21.93,-5.27 26.71,-5.27 2.94,0.03 10.89,1.77 11.56,2.36 0.3,0.28 0.84,1.04 1.6,2.28"
     fill="none"
     stroke="#838383"
     stroke-width="20"
     stroke-opacity="1"
     stroke-linejoin="round"
     id="path62"
     style="stroke-linecap:round;stroke-width:12;stroke-miterlimit:4;stroke-dasharray:none" />
  <path
     d="m 1323.47,944.7 c 0.08,-0.03 0.19,-0.11 0.36,-0.25 0.5,-0.39 7.83,-6.18 10.58,-7.47 2.49,-1.13 8.05,-2.52 11.42,-2.85 3.2,-0.27 8.65,1.19 11.93,3.54 2.74,2.02 6.67,6.57 7.06,7.19 0.17,0.27 0.35,0.68 0.53,1.22"
     fill="none"
     stroke="#838383"
     stroke-width="20"
     stroke-opacity="1"
     stroke-linejoin="round"
     id="path64"
     style="stroke-linecap:round;stroke-width:12;stroke-miterlimit:4;stroke-dasharray:none" />
  <path
     d="m 1366.74,940.72 c -0.25,0.39 -0.49,0.62 -0.72,0.68 -0.22,0.07 -0.75,0.06 -1.57,-0.01 3.16,-3.9 6.3,-6.73 8.87,-7.15 2.25,-0.32 8.38,0.09 11.07,1.4 1.22,0.6 6.82,4.26 7.83,4.94"
     fill="none"
     stroke="#838383"
     stroke-width="20"
     stroke-opacity="1"
     stroke-linejoin="round"
     id="path66"
     style="stroke-linecap:round;stroke-width:12;stroke-miterlimit:4;stroke-dasharray:none" />
  <path
     d="m 1388.75,937.77 c 0.45,0.11 0.84,0.16 1.18,0.14 0.35,-0.01 12.64,-1.56 14.86,-1.16 1.48,0.31 7.89,4.68 10.12,7.02 2.34,2.49 5,7.71 5.28,10.53 0.08,0.9 0.1,1.56 0.06,1.97 -0.02,0.22 -0.11,0.49 -0.26,0.82"
     fill="none"
     stroke="#838383"
     stroke-width="20"
     stroke-opacity="1"
     stroke-linejoin="round"
     id="path68"
     style="stroke-linecap:round;stroke-width:12;stroke-miterlimit:4;stroke-dasharray:none" />
  <path
     d="m 739.99,1349.77 c -4.02,1.49 -21.77,11.7 -26.33,13.98 -8.15,4.05 -38.45,15.76 -53.93,22.61 -6.77,2.84 -20.72,8.33 -28.05,11.18 -14,5.77 -37.91,18.82 -54.76,25.96 -29.67,12.06 -64.94,26.68 -65.33,26.86 -0.36,0.17 -0.9,0.5 -1.62,0.99"
     fill="none"
     stroke="#838383"
     stroke-width="20"
     stroke-opacity="1"
     stroke-linejoin="round"
     id="path70"
     style="stroke-linecap:round;stroke-width:12;stroke-miterlimit:4;stroke-dasharray:none" />
  <path
     d="m 1572.99,1311.19 c 0,0 -0.17,-0.33 -0.17,-0.33 -2.12,0.06 -3.22,0.21 -5.23,0.77 -32.99,8.79 -74.62,22.48 -89.83,27.47 -9.96,3.06 -19.02,5.32 -27.41,6.75 -7.38,1.07 -21.84,3.11 -28.93,4.07 -11.4,1.62 -43.37,9.95 -58.48,13.98 -8.72,2.2 -47.43,12.52 -53.93,13.8 -6.87,1.33 -44.19,5.32 -58.95,6.38 -8.1,0.5 -23.79,1.58 -30.75,2.22 -9.54,0.95 -19.98,2.91 -30.82,5.37 -13.03,3.12 -76.01,23.29 -116.41,36.87 -5.68,1.78 -21.15,3.93 -28.94,4.81 -8.74,0.91 -28.13,3.15 -32.79,3.93 -4.13,0.7 -40.4,10.21 -51.87,14.06 -6.94,2.42 -21.22,5.79 -28.74,7.32 -8.18,1.54 -25.85,5.35 -30.66,6.69 -9.22,2.6 -44.85,17 -53.35,19.67 -5.62,1.76 -51.33,13.45 -62.19,15.89 -10.34,2.11 -20.83,3.74 -30.53,4.68 -14.1,1.22 -42.65,3.89 -56.85,6.4 -8.34,1.6 -22.37,3.45 -30.95,3.84 -7.69,0.24 -25.58,0.81 -26.87,0.69 -3.55,-0.35 -48.36,-7.42 -60.29,-8.74 -7.45,-0.81 -22.46,-3.34 -29.33,-5.86 -7.88,-2.92 -17.16,-7.78 -23.18,-12.73 -1.96,-1.65 -5.83,-5.49 -7.43,-8.68 -1.11,-2.27 -8.44,-22.34 -8.56,-22.87 -0.11,-0.48 -0.28,-1.61 -0.53,-3.39"
     fill="none"
     stroke="#838383"
     stroke-width="20"
     stroke-opacity="1"
     stroke-linejoin="round"
     id="path72"
     style="stroke-linecap:round;stroke-width:12;stroke-miterlimit:4;stroke-dasharray:none" />
  <path
     d="m 957.83,1303.57 c 0.38,0.1 0.67,0.15 0.85,0.15 3,0.15 5.76,0.75 11.51,2.57 3.49,1.09 9.77,2.66 15.32,3.08 3.18,0.23 25.42,0.91 28.68,1.32 2.31,0.32 7.67,3 10.28,5.06 2.68,2.17 6.91,8.6 8.71,12.11 2.51,5.03 6.75,22.45 8.44,27.34 2.15,6.16 8.52,19.43 12.68,25.45 3.32,4.75 23.43,27.85 23.78,28.18 0.37,0.34 1.22,1.07 2.54,2.16"
     fill="none"
     stroke="#838383"
     stroke-width="20"
     stroke-opacity="1"
     stroke-linejoin="round"
     id="path74"
     style="stroke-linecap:round;stroke-width:12;stroke-miterlimit:4;stroke-dasharray:none" />
  <path
     d="m 962.59,1306.18 c 0.64,-2.78 1.35,-9.41 2.07,-22.06 0.45,-7.17 1.6,-23.38 1.77,-27.51 0.37,-15.64 1.55,-51.58 2.88,-62.25 0.9,-7.06 3.78,-20.31 5.94,-27.27 3.35,-10.63 4.47,-14.59 5.36,-18.27 0.3,-1.31 0.78,-3.48 0.96,-4.33"
     fill="none"
     stroke="#838383"
     stroke-width="20"
     stroke-opacity="1"
     stroke-linejoin="round"
     id="path76"
     style="stroke-linecap:round;stroke-width:12;stroke-miterlimit:4;stroke-dasharray:none" />
  <path
     d="m 974.42,1157.91 c 1.28,-4.9 2.35,-9.81 6.3,-36.58 3.32,-21.16 7.63,-42.59 12.48,-60.59 2.41,-8.21 6.04,-20.44 7.26,-24.45 -7.02,30.13 -17.99,78.05 -19.91,89.37 -0.95,6.39 -3.36,26.49 -3.96,29.42 -0.18,0.86 -0.99,3.92 -1.23,4.85"
     fill="none"
     stroke="#838383"
     stroke-width="20"
     stroke-opacity="1"
     stroke-linejoin="round"
     id="path78"
     style="stroke-linecap:round;stroke-width:12;stroke-miterlimit:4;stroke-dasharray:none" />
  <path
     d="m 988.67,1051.14 c 1.34,-1.08 3.64,-6.32 6.45,-15.44 5.85,-19.28 12.68,-38.16 20.69,-57.85 3.56,-9.18 6.3,-18.58 8.74,-28.26 2.4,-9.85 7.3,-23.95 11.1,-32.24 1.44,-3.14 8.48,-17.35 9.62,-19.65 -1.28,1.7 -3.57,5.41 -3.76,5.56 -0.38,0.3 -1.13,0.48 -2.27,0.54"
     fill="none"
     stroke="#838383"
     stroke-width="20"
     stroke-opacity="1"
     stroke-linejoin="round"
     id="path80"
     style="stroke-linecap:round;stroke-width:12;stroke-miterlimit:4;stroke-dasharray:none" />
  <path
     d="m 997.22,1046.52 c 0.66,-1.46 2.26,-11.65 4.99,-24.34 3.63,-16.19 7.53,-33.54 7.79,-34.71 0.08,4.32 -3.9,36.49 -4.9,44.61 -0.35,3.07 -0.79,6.92 -0.88,7.7"
     fill="none"
     stroke="#838383"
     stroke-width="20"
     stroke-opacity="1"
     stroke-linejoin="round"
     id="path82"
     style="stroke-linecap:round;stroke-width:12;stroke-miterlimit:4;stroke-dasharray:none" />
  <path
     d="m 1042.07,909.7 c 0.99,-2.07 2.27,-5 3.76,-8.59 3.01,-7.22 20.31,-44.74 27.38,-60.01 4.7,-10.05 9.84,-18.57 13.84,-25.13 14.76,-23.65 19.71,-30.69 20.93,-32.4"
     fill="none"
     stroke="#838383"
     stroke-width="20"
     stroke-opacity="1"
     stroke-linejoin="round"
     id="path84"
     style="stroke-linecap:round;stroke-width:12;stroke-miterlimit:4;stroke-dasharray:none" />
  <path
     d="m 1104.46,791.52 c 0,0 -3.05,0.87 -3.05,0.87 0.31,-0.66 0.68,-1.24 1.87,-2.91 13.72,-19.17 20.23,-26.77 37.63,-45.84 11.17,-12.02 32.58,-32.08 43.34,-41.97 17.14,-16.41 34.01,-30.93 44.73,-38.29 3.3,-2.24 7.36,-3.96 10.83,-4.93 10.1,-2.71 19.97,-4.46 26.14,-4.55 3.89,-0.05 11.45,0.39 15.86,0.99 2.48,0.33 9.94,1.52 11.26,1.74"
     fill="none"
     stroke="#838383"
     stroke-width="20"
     stroke-opacity="1"
     stroke-linejoin="round"
     id="path86"
     style="stroke-linecap:round;stroke-width:12;stroke-miterlimit:4;stroke-dasharray:none" />
  <path
     d="m 1278.32,655.54 c 0.43,-0.58 0.83,-0.91 1.21,-1 1.77,-0.38 9.63,2.47 12.75,3.23 6.14,1.49 23.84,3.75 31.84,4.76 8.6,1.24 24.21,4.82 28.55,6.6 6.03,2.49 13.54,7.52 22.41,14.96 6.74,5.8 22.34,19.53 24.84,22.47 2.04,2.41 3.91,7.25 3.82,9.33 -0.01,0.31 -0.08,1.06 -0.19,2.24"
     fill="none"
     stroke="#838383"
     stroke-width="20"
     stroke-opacity="1"
     stroke-linejoin="round"
     id="path88"
     style="stroke-linecap:round;stroke-width:12;stroke-miterlimit:4;stroke-dasharray:none" />
  <path
     d="m 864.93,1248.96 c 0,0 0.22,-0.41 0.22,-0.41 2.91,0.02 5.16,0.29 10.18,1.15 51.57,9.37 72.86,15.26 78.86,16.94 1.61,0.45 3.17,0.78 4.54,0.96 0.35,0.04 0.88,0.09 1.58,0.14"
     fill="none"
     stroke="#838383"
     stroke-width="20"
     stroke-opacity="1"
     stroke-linejoin="round"
     id="path90"
     style="stroke-linecap:round;stroke-width:12;stroke-miterlimit:4;stroke-dasharray:none" />
  <path
     d="m 864.04,1199.9 c 1.12,-0.56 1.87,-0.89 2.23,-0.98 1.86,-0.42 44.97,9.1 60.67,12.96 15.74,3.61 30.4,4.32 31.21,4.24"
     fill="none"
     stroke="#838383"
     stroke-width="20"
     stroke-opacity="1"
     stroke-linejoin="round"
     id="path92"
     style="stroke-linecap:round;stroke-width:12;stroke-miterlimit:4;stroke-dasharray:none" />
  <path
     d="m 852.27,1147.34 c 0.07,-0.07 0.17,-0.09 0.31,-0.07 0.1,0.03 18.41,5.16 25.09,6.73 8.15,1.84 24.12,5.57 31.24,7.39 9.02,2.47 23.92,7.38 29.34,8.67 6.77,1.59 26.01,4.01 26.92,3.36 0.31,-0.24 0.98,-0.97 1.99,-2.18"
     fill="none"
     stroke="#838383"
     stroke-width="20"
     stroke-opacity="1"
     stroke-linejoin="round"
     id="path94"
     style="stroke-linecap:round;stroke-width:12;stroke-miterlimit:4;stroke-dasharray:none" />
  <path
     d="m 853.06,1091.15 c 0,0 -0.17,-0.41 -0.17,-0.41 1.69,1.01 2.56,1.5 4.4,2.46 5.71,2.95 44.17,17.33 59.62,22.07 15.64,4.47 35.56,8.05 50.71,9.67 1.71,0.19 3.52,0.5 4.76,0.85 0.35,0.09 0.86,0.27 1.54,0.51"
     fill="none"
     stroke="#838383"
     stroke-width="20"
     stroke-opacity="1"
     stroke-linejoin="round"
     id="path96"
     style="stroke-linecap:round;stroke-width:12;stroke-miterlimit:4;stroke-dasharray:none" />
  <path
     d="m 1448.4,1142.53 c 0.11,-0.56 0.19,-0.97 0.23,-1.24 0.04,-0.26 0.1,-0.76 0.18,-1.5 -2.59,7.51 -4.35,19.91 -5.33,26.89 -2.34,17.64 -7.95,56.51 -10.13,66.39 -3.22,13.38 -11.03,42.55 -14.76,54.87 -1.98,6.6 -13.64,56.17 -15.36,60.13 -0.38,0.87 -1.98,3.7 -2.56,4.76"
     fill="none"
     stroke="#838383"
     stroke-width="20"
     stroke-opacity="1"
     stroke-linejoin="round"
     id="path98"
     style="stroke-linecap:round;stroke-width:12;stroke-miterlimit:4;stroke-dasharray:none" />
  <path
     d="m 1450.99,1142.53 c 0,0 1.59,-8.69 1.59,-8.69 -1.69,7.04 -5.51,22.78 -7.65,31.48 -0.56,2.24 -1.78,6.26 -2.59,8.34 -0.25,0.66 -0.58,1.34 -0.99,2.05"
     fill="none"
     stroke="#838383"
     stroke-width="20"
     stroke-opacity="1"
     stroke-linejoin="round"
     id="path100"
     style="stroke-linecap:round;stroke-width:12;stroke-miterlimit:4;stroke-dasharray:none" />
  <path
     d="m 730.57,1350.08 c -0.37,0.9 -0.14,3.53 0.67,4.61 0.32,0.42 8.98,2.29 11.46,2.13 0.54,-0.04 91.6,-21.29 126.35,-29.5 7.26,-1.69 24.04,-5.54 27.6,-6.17 4.83,-0.86 21.37,-2.03 27.29,-2.88 3.87,-0.56 23.93,-4.28 31.92,-5.84 3.77,-0.82 9.13,-2.59 12.43,-4.11 1.87,-0.87 7.72,-3.83 8.76,-4.35"
     fill="none"
     stroke="#838383"
     stroke-width="20"
     stroke-opacity="1"
     stroke-linejoin="round"
     id="path102"
     style="stroke-linecap:round;stroke-width:12;stroke-miterlimit:4;stroke-dasharray:none" />
  <path
     d="m 349.91,604.58 c 4.3,-5.62 13.1,-16.93 17.6,-22.61 7.19,-9.45 31.62,-45.59 34.05,-48.5 0.86,-1.02 1.4,-1.76 1.63,-2.25 0.23,-0.48 0.64,-1.62 1.22,-3.42"
     fill="none"
     stroke="#838383"
     stroke-width="20"
     stroke-opacity="1"
     stroke-linejoin="round"
     id="path104"
     style="stroke-linecap:round;stroke-width:12;stroke-miterlimit:4;stroke-dasharray:none" />
  <path
     d="m 403.69,524.84 c -0.04,1.22 0.33,2.11 1.69,3.26 8.7,7.38 30.76,20.54 30.9,20.61 0.2,0.09 0.35,0.09 0.45,-0.01"
     fill="none"
     stroke="#838383"
     stroke-width="20"
     stroke-opacity="1"
     stroke-linejoin="round"
     id="path106"
     style="stroke-linecap:round;stroke-width:12;stroke-miterlimit:4;stroke-dasharray:none" />
  <path
     d="m 437.13,546.08 c -1.31,2.04 -4.62,7.03 -6.6,9.97 -4.64,6.7 -10.39,16.21 -11.71,18.49"
     fill="none"
     stroke="#838383"
     stroke-width="20"
     stroke-opacity="1"
     stroke-linejoin="round"
     id="path108"
     style="stroke-linecap:round;stroke-width:12;stroke-miterlimit:4;stroke-dasharray:none" />
  <path
     d="m 354.19,600.85 c 0.47,0.25 0.81,0.47 1.02,0.65 0.21,0.19 12.74,13.23 20.34,19.63 1.44,1.22 2.47,1.92 4.62,3.19 0.65,-3.05 10.96,-20.19 13.05,-22.77 0.24,-0.29 0.71,-0.78 1.41,-1.46"
     fill="none"
     stroke="#838383"
     stroke-width="20"
     stroke-opacity="1"
     stroke-linejoin="round"
     id="path110"
     style="stroke-linecap:round;stroke-width:12;stroke-miterlimit:4;stroke-dasharray:none" />
  <path
     d="m 396.25,598.48 c -0.22,-0.22 -0.42,-0.44 -0.58,-0.66 -0.16,-0.23 -0.52,-0.77 -1.07,-1.62 42.5,36.18 59.59,51.55 92.86,78.81 7.62,5.95 14.86,11.29 16.66,12.6 0.66,0.47 1.32,0.93 1.97,1.4"
     fill="none"
     stroke="#838383"
     stroke-width="20"
     stroke-opacity="1"
     stroke-linejoin="round"
     id="path112"
     style="stroke-linecap:round;stroke-width:12;stroke-miterlimit:4;stroke-dasharray:none" />
  <path
     d="m 505.91,685.42 c 1.64,-1.23 5.67,-4.74 8,-6.96 2.7,-2.62 6.92,-8.04 9.32,-12.01 1.69,-2.86 5.1,-8.71 5.28,-9.37 0.11,-0.45 0.38,-1.71 0.79,-3.78"
     fill="none"
     stroke="#838383"
     stroke-width="20"
     stroke-opacity="1"
     stroke-linejoin="round"
     id="path114"
     style="stroke-linecap:round;stroke-width:12;stroke-miterlimit:4;stroke-dasharray:none" />
  <path
     d="m 418.51,567.76 c 12.32,8.81 44.88,31.88 47.91,34.1 6.34,4.85 19.06,15.31 25.42,20.86 11.67,10.76 37.22,34.67 37.6,34.85 0.26,0.12 0.83,0.25 1.7,0.39"
     fill="none"
     stroke="#838383"
     stroke-width="20"
     stroke-opacity="1"
     stroke-linejoin="round"
     id="path116"
     style="stroke-linecap:round;stroke-width:12;stroke-miterlimit:4;stroke-dasharray:none" />
  <path
     d="m 508.62,686.51 c 0.11,-0.27 0.03,-0.89 0.14,-1.08 0.18,-0.33 5.37,-7.36 6.27,-8.57 0,0 -7.68,7.26 -7.68,7.26 0,0 2.04,-3.53 2.04,-3.53"
     fill="none"
     stroke="#838383"
     stroke-width="20"
     stroke-opacity="1"
     stroke-linejoin="round"
     id="path118"
     style="stroke-linecap:round;stroke-width:12;stroke-miterlimit:4;stroke-dasharray:none" />
  <path
     d="m 433.43,485.16 c 0.06,-0.18 0.42,0.13 4.35,4.39 9.93,10.41 32.23,33.89 44.6,46.95 16.55,18.13 28.27,32.94 40.43,45.13 6.09,5.77 16.92,16.04 21.66,20.52 3.81,3.66 12.01,11.69 19.41,17.62"
     fill="none"
     stroke="#838383"
     stroke-width="20"
     stroke-opacity="1"
     stroke-linejoin="round"
     id="path120"
     style="stroke-linecap:round;stroke-width:12;stroke-miterlimit:4;stroke-dasharray:none" />
  <path
     d="m 436.47,490.75 c 1.56,-1.52 4.69,-4.23 9.44,-8.22 3.56,-2.99 11.32,-9.59 12.47,-10.65 2.12,-1.97 5.71,-6.25 8.65,-8.87 7.22,-6.32 16.4,-12.96 23.33,-16.35 2.94,-1.43 11.86,-5.15 13,-5.46 3.67,-0.98 10.08,-0.39 12.95,0.06 5.55,0.9 16.27,5.48 21.12,9.05 2.94,2.2 7.2,6.33 9.59,9.31 2.17,2.76 5.74,8.98 6.9,11.8 0.94,2.32 2.68,8.91 2.92,12.33 0.23,3.69 -0.74,8.44 -2.24,11.78 -1.29,2.77 -3.11,6.69 -3.66,7.84 3.75,-3.52 8.04,-6.09 12.18,-6.65 2.8,-0.32 8.77,0.08 14.71,0.7 4.49,0.54 10.63,2.12 13.44,3.46 5.08,2.5 12.69,10.14 22.37,20.31 7.01,7.3 16.34,17.58 17.32,18.38 2.32,1.86 7.14,4.51 8.15,5.07"
     fill="none"
     stroke="#838383"
     stroke-width="20"
     stroke-opacity="1"
     stroke-linejoin="round"
     id="path122"
     style="stroke-linecap:round;stroke-width:12;stroke-miterlimit:4;stroke-dasharray:none" />
  <path
     d="m 561.23,619.55 c 1.34,-1.93 2.08,-2.88 6.07,-7.09 5.86,-6.2 15.23,-18.35 16.32,-21.85"
     fill="none"
     stroke="#838383"
     stroke-width="20"
     stroke-opacity="1"
     stroke-linejoin="round"
     id="path124"
     style="stroke-linecap:round;stroke-width:12;stroke-miterlimit:4;stroke-dasharray:none" />
  <path
     d="m 587.77,589.52 c 0,0 0.22,0.03 0.22,0.03 -1.34,-2.37 -2.03,-3.42 -3.15,-4.7 -5.04,-5.96 -12.58,-13.58 -20.44,-20.79 -7.87,-6.93 -19.21,-16.2 -21.97,-18.86 -4.07,-3.97 -8.11,-11.78 -8.18,-11.92 -0.07,-0.17 -0.11,-0.33 -0.12,-0.49"
     fill="none"
     stroke="#838383"
     stroke-width="20"
     stroke-opacity="1"
     stroke-linejoin="round"
     id="path126"
     style="stroke-linecap:round;stroke-width:12;stroke-miterlimit:4;stroke-dasharray:none" />
  <path
     d="m 535.8,534.93 c 3.85,-3.42 8.29,-6.11 12.49,-7.01 3.43,-0.67 9.77,-0.29 13.34,0.52 3.24,0.78 8.55,3.64 11.89,5.89 5.3,3.62 15.77,14.13 20.84,19.3 5.51,5.83 14.26,15.05 17.16,16.95 2.96,-3.57 16.58,-16.59 19.61,-19.71 1.58,-1.61 2.37,-3.1 2.39,-4.54 0,-0.34 -0.09,-0.89 -0.27,-1.65"
     fill="none"
     stroke="#838383"
     stroke-width="20"
     stroke-opacity="1"
     stroke-linejoin="round"
     id="path128"
     style="stroke-linecap:round;stroke-width:12;stroke-miterlimit:4;stroke-dasharray:none" />
  <path
     d="m 484.17,482.42 c 0.27,0.04 0.49,0.13 0.67,0.28 0.16,0.14 26.37,27.72 30.43,31.01 1.17,0.93 1.61,0.77 2.22,0.7 0.49,-0.67 5.08,-5.66 6.94,-8.22 2.58,-3.6 4.05,-6.9 3.69,-9.13 -0.61,-3.3 -2.09,-7.04 -4.02,-9.93 -1.84,-2.71 -5.77,-6.73 -8.14,-8.24 -2.43,-1.51 -7.98,-3.45 -10.66,-3.64 -2.59,-0.14 -8.41,1.69 -10.95,3.13 -1.32,0.77 -3.58,2.65 -4.63,3.84 -0.5,0.57 -2.48,3.14 -3.07,3.92"
     fill="none"
     stroke="#838383"
     stroke-width="20"
     stroke-opacity="1"
     stroke-linejoin="round"
     id="path130"
     style="stroke-linecap:round;stroke-width:12;stroke-miterlimit:4;stroke-dasharray:none" />
  <path
     d="m 455.96,475.69 c 0,0 0.6,-1.26 0.6,-1.26 -1.75,0.66 -4.74,3.12 -9.1,7.44 -2.88,2.97 -7.77,7.99 -8.14,9.49 2.87,-1.3 13.01,-11.64 13.96,-13.19 0,0 -6.57,7.96 -6.57,7.96 0,0 7.8,-7.62 7.8,-7.62 0,0 -9.88,7.54 -9.88,7.54"
     fill="none"
     stroke="#838383"
     stroke-width="20"
     stroke-opacity="1"
     stroke-linejoin="round"
     id="path132"
     style="stroke-linecap:round;stroke-width:12;stroke-miterlimit:4;stroke-dasharray:none" />
  <path
     d="m 652.18,535.75 c 0,-2.31 -0.7,-4.75 -11.32,-29.5 -6.65,-16.81 -17.41,-46.47 -22.65,-61.23 -4.07,-11.13 -7.06,-18.44 -10.81,-26.32 -1.31,-2.63 -7.51,-15.21 -11.72,-25.34 -2.97,-7.57 -7.94,-19.98 -8.12,-20.28 -0.58,-0.98 -1.95,-2.42 -2.82,-3.14"
     fill="none"
     stroke="#838383"
     stroke-width="20"
     stroke-opacity="1"
     stroke-linejoin="round"
     id="path134"
     style="stroke-linecap:round;stroke-width:12;stroke-miterlimit:4;stroke-dasharray:none" />
  <path
     d="m 590.47,371.59 c 0,0 -1.46,-0.11 -1.46,-0.11 1.89,-2.23 6.42,-5.7 10.67,-8.39 21.71,-12.72 30.68,-18.52 31.14,-18.85 2.03,-1.44 3.34,-1.83 4.59,-1.34 3.54,1.55 11.94,9.54 17.98,16.38 9.45,11.18 29.27,35.3 39.83,49.12 8.59,11.55 20.99,28.04 36.95,47.27 7.5,8.88 13.96,15.86 16.09,17.34 -1.65,2.53 -10.66,8.4 -20.07,13.84 -1.76,1 -5.46,3.08 -6.48,3.61 -2.26,1.15 -4.99,2.42 -6.32,2.95"
     fill="none"
     stroke="#838383"
     stroke-width="20"
     stroke-opacity="1"
     stroke-linejoin="round"
     id="path136"
     style="stroke-linecap:round;stroke-width:12;stroke-miterlimit:4;stroke-dasharray:none" />
  <path
     d="m 717.19,493.5 c -0.59,-3.08 -1.05,-4.36 -4.28,-8.58 -4.36,-5.4 -16.5,-15.81 -18.81,-19.5 -1.15,2.13 -1.97,3.03 -3.81,3.95 -3.31,1.71 -9.37,4.8 -12.13,6.17 -3.27,1.61 -6.56,4.78 -6.93,6.49 -0.18,0.96 3.88,5.78 6.77,9.44 5.29,6.72 8.77,12.98 9.93,15.67 -2.34,2.26 -7.45,7.13 -9.82,8.97 -3.36,2.56 -18.03,8.96 -24.44,11.7 -1.3,0.58 -2.98,1.7 -4.27,2.74 -0.28,0.23 -0.81,0.69 -1.58,1.36"
     fill="none"
     stroke="#838383"
     stroke-width="20"
     stroke-opacity="1"
     stroke-linejoin="round"
     id="path138"
     style="stroke-linecap:round;stroke-width:12;stroke-miterlimit:4;stroke-dasharray:none" />
  <path
     d="m 624.49,379.71 c 0,0 0.11,-1.81 0.11,-1.81 5.84,13.16 19.69,44.58 25.28,56.13 5.64,11.17 10.16,19.21 10.42,19.45 0.66,0.57 2.15,0.38 4.05,-0.37 10.04,-4.1 11.92,-5.98 12.3,-6.7 -2.15,-4.41 -10.7,-17.23 -15.33,-24.1 -12.75,-18.08 -30.61,-38.27 -30.87,-38.36 -0.26,-0.08 -0.76,0.06 -1.52,0.42"
     fill="none"
     stroke="#838383"
     stroke-width="20"
     stroke-opacity="1"
     stroke-linejoin="round"
     id="path140"
     style="stroke-linecap:round;stroke-width:12;stroke-miterlimit:4;stroke-dasharray:none" />
  <path
     d="m 707.06,292.7 c 0,0 -0.76,0.59 -0.76,0.59 1.16,6.64 3.91,14.75 8.2,25.71 8.03,19.47 17.53,39.76 23.73,57 5.09,15.1 16.03,47.75 18.83,54.78 5.93,14.47 12.7,30.9 12.78,31.32 0.07,0.43 0.09,1.32 0.05,2.68"
     fill="none"
     stroke="#838383"
     stroke-width="20"
     stroke-opacity="1"
     stroke-linejoin="round"
     id="path142"
     style="stroke-linecap:round;stroke-width:12;stroke-miterlimit:4;stroke-dasharray:none" />
  <path
     d="m 707.19,298.46 c 2.91,-1.86 6.02,-3.31 10.63,-4.74 4.31,-1.3 19.77,-5.67 20.8,-6.11 1.3,-0.57 5.38,-4.19 6.4,-5.1"
     fill="none"
     stroke="#838383"
     stroke-width="20"
     stroke-opacity="1"
     stroke-linejoin="round"
     id="path144"
     style="stroke-linecap:round;stroke-width:12;stroke-miterlimit:4;stroke-dasharray:none" />
  <path
     d="m 742.07,280.82 c 0.64,0.54 2.76,2.32 3.44,2.96 8.89,8.41 28.11,31.82 36.34,42.1 10.41,13.48 36.01,46.92 37.67,48.57"
     fill="none"
     stroke="#838383"
     stroke-width="20"
     stroke-opacity="1"
     stroke-linejoin="round"
     id="path146"
     style="stroke-linecap:round;stroke-width:12;stroke-miterlimit:4;stroke-dasharray:none" />
  <path
     d="m 775.58,267.03 c 0,0 -0.28,-0.36 -0.28,-0.36 0.09,1.75 4.92,18.82 7.31,27.25 2.51,8.71 8.36,28.73 9.73,32.75 0.77,2.28 6.29,15.39 10.38,22.56 4.28,7.43 10.34,17.95 12.12,21.05 1.11,1.89 1.48,2.74 1.84,4.08"
     fill="none"
     stroke="#838383"
     stroke-width="20"
     stroke-opacity="1"
     stroke-linejoin="round"
     id="path148"
     style="stroke-linecap:round;stroke-width:12;stroke-miterlimit:4;stroke-dasharray:none" />
  <path
     d="m 778.13,266.55 c 2.67,-0.41 9.42,-1.51 13.82,-2.56 4.36,-1.06 17.08,-4.9 18.28,-5.26"
     fill="none"
     stroke="#838383"
     stroke-width="20"
     stroke-opacity="1"
     stroke-linejoin="round"
     id="path150"
     style="stroke-linecap:round;stroke-width:12;stroke-miterlimit:4;stroke-dasharray:none" />
  <path
     d="m 812.07,252.15 c 2.23,6.67 7.02,20.91 9.72,28.52 7.98,20.74 14.03,38.4 22.23,58.78 10.45,25.4 15.91,42.1 20.8,56.5 3.75,10.53 5.51,14.77 7.88,20.03 0.6,1.36 1.09,3.61 1.12,5.14 0.01,0.43 -0.04,1.06 -0.15,1.91"
     fill="none"
     stroke="#838383"
     stroke-width="20"
     stroke-opacity="1"
     stroke-linejoin="round"
     id="path152"
     style="stroke-linecap:round;stroke-width:12;stroke-miterlimit:4;stroke-dasharray:none" />
  <path
     d="m 768.78,458.3 c 0.96,0.2 1.63,0.28 2,0.25 0.54,-0.05 26.53,-9.22 26.88,-9.27 0.43,-0.07 1.56,-0.19 3.39,-0.36"
     fill="none"
     stroke="#838383"
     stroke-width="20"
     stroke-opacity="1"
     stroke-linejoin="round"
     id="path154"
     style="stroke-linecap:round;stroke-width:12;stroke-miterlimit:4;stroke-dasharray:none" />
  <path
     d="m 756.13,333.06 c 1.26,1.11 2.04,1.83 2.33,2.16 1.78,2.05 6.44,14.68 9.51,25.09 2.19,7.87 7.57,26.23 9.19,30.78 3.43,9.17 22.87,56.18 23.09,56.65 0.47,1 2.06,3.93 2.54,4.82"
     fill="none"
     stroke="#838383"
     stroke-width="20"
     stroke-opacity="1"
     stroke-linejoin="round"
     id="path156"
     style="stroke-linecap:round;stroke-width:12;stroke-miterlimit:4;stroke-dasharray:none" />
  <path
     d="m 758.95,334.37 c 0,0 -0.52,-1.38 -0.52,-1.38 15.86,20.5 22.62,31.06 33.82,45.58 20.22,25.25 41.87,52.28 43.36,53.74 0,0 0.45,-1.2 0.45,-1.2"
     fill="none"
     stroke="#838383"
     stroke-width="20"
     stroke-opacity="1"
     stroke-linejoin="round"
     id="path158"
     style="stroke-linecap:round;stroke-width:12;stroke-miterlimit:4;stroke-dasharray:none" />
  <path
     d="m 838.07,429.8 c 0.25,1.75 0.48,2.77 0.69,3.04 0.02,0.03 31.97,-8.61 35.75,-10.26 0.29,-0.12 0.8,-0.37 1.55,-0.74"
     fill="none"
     stroke="#838383"
     stroke-width="20"
     stroke-opacity="1"
     stroke-linejoin="round"
     id="path160"
     style="stroke-linecap:round;stroke-width:12;stroke-miterlimit:4;stroke-dasharray:none" />
  <path
     d="m 950.86,283.44 c -1.7,-0.03 -6.55,-0.12 -7.14,-0.16 -0.09,0 -0.3,-0.15 -0.21,-0.15 0.35,-0.01 25.31,0.38 29.51,0.16 0.85,-0.04 4,-0.27 4.94,-0.34"
     fill="none"
     stroke="#838383"
     stroke-width="20"
     stroke-opacity="1"
     stroke-linejoin="round"
     id="path162"
     style="stroke-linecap:round;stroke-width:12;stroke-miterlimit:4;stroke-dasharray:none" />
  <path
     d="m 887.52,358.35 c 0.64,-0.46 1.28,-0.92 1.92,-1.38 1.46,-1.02 4.89,-1.8 10.46,-2.49 7.06,-0.63 19.7,-2.18 20.11,-2.22 0.44,-0.05 1.24,-0.07 2.38,-0.08"
     fill="none"
     stroke="#838383"
     stroke-width="20"
     stroke-opacity="1"
     stroke-linejoin="round"
     id="path164"
     style="stroke-linecap:round;stroke-width:12;stroke-miterlimit:4;stroke-dasharray:none" />
  <path
     d="m 923.64,348.81 c 1.48,3.87 3.74,17.86 5.32,20.72 1.33,2.3 6.2,5.35 9.68,6.25 2.03,0.49 4.89,0.76 6.52,0.55 1.74,-0.26 4.3,-1.46 5.78,-2.71 1.52,-1.34 3.22,-3.89 3.98,-5.93 0.62,-1.83 1.08,-5.23 0.74,-6.63 -0.78,-2.94 -5.75,-9.66 -7.67,-11.87 -2.44,-2.77 -8.02,-7.87 -10.9,-10.05 -3.53,-2.63 -16.86,-9.08 -23.25,-13.29 -4.02,-2.75 -7.58,-5.48 -10.38,-8.74 -3.59,-4.25 -13.02,-19.78 -14.91,-25.75 -1.96,-6.32 -3.46,-17.44 -2.98,-22.93 0.26,-2.84 1.83,-9.9 2.96,-12.88 1.4,-3.57 4.43,-8.76 7.18,-11.73 1.57,-1.66 6.54,-5.78 9.56,-7.65 3.71,-2.26 9.64,-4.92 13.62,-6.05 3.61,-1.01 11.25,-1.67 14.69,-1.16 4.9,0.78 16.62,6.64 22.59,10.89 3.23,2.31 9.52,7.54 11.78,10.01 2.26,2.5 5.85,7.54 6.74,9.5 1.5,3.4 4.88,16.9 5.04,17.45 0.11,0.36 0.32,0.97 0.62,1.81"
     fill="none"
     stroke="#838383"
     stroke-width="20"
     stroke-opacity="1"
     stroke-linejoin="round"
     id="path166"
     style="stroke-linecap:round;stroke-width:12;stroke-miterlimit:4;stroke-dasharray:none" />
  <path
     d="m 946.37,283.52 c 0,0 -0.18,0.18 -0.18,0.18 -0.01,-2.67 -0.18,-4.11 -0.8,-5.91 -1.48,-4.21 -3.83,-8.63 -6.16,-11.47 -1.13,-1.33 -3.71,-3.61 -5.24,-4.56 -1.7,-1 -5.04,-1.89 -7.34,-2.02 -3.36,-0.13 -9.09,1.5 -10.42,2.78 -0.98,1 -1.7,3.7 -1.51,5.46 0.16,1.27 3.36,8.84 5.49,11.84 1.58,2.2 6.9,8.57 8.26,9.84 6.74,6.19 30.88,19.64 36.92,22.87 3.1,1.76 8.45,6.08 10.77,8.72 0.36,0.41 12.5,14.98 14.84,19.41 2.02,3.92 2.58,11.57 3.07,24.62 0.39,13.1 -0.02,18.21 -1.44,20.7 -2.05,3.47 -4.95,6.55 -8.3,8.95 -5.2,3.64 -13.45,7.32 -25.06,11.84 -7.95,3.05 -18.29,5.79 -24.04,6.28 -3.86,0.31 -9.28,0.22 -13.11,-0.23 -3.31,-0.4 -8.59,-1.94 -10.78,-3.63 -2.45,-1.95 -5.85,-5.79 -7.84,-8.97 -2.63,-4.25 -5.55,-9.81 -6.82,-13.36 -5.55,-15.74 -4.62,-28.91 -4.53,-29.58 0.07,-0.51 0.21,-1.63 0.41,-3.37"
     fill="none"
     stroke="#838383"
     stroke-width="20"
     stroke-opacity="1"
     stroke-linejoin="round"
     id="path168"
     style="stroke-linecap:round;stroke-width:12;stroke-miterlimit:4;stroke-dasharray:none" />
  <path
     d="m 1089.92,217.87 c -0.38,0.37 -0.63,0.66 -0.73,0.86 -1.57,3.34 -4.53,44.29 -5.74,61.97 -2.8,29.59 -5.75,73.17 -7.92,89.68 -1.05,8.97 -0.32,25.78 -0.31,26.47 0.01,0.46 -0.01,1.39 -0.04,2.78"
     fill="none"
     stroke="#838383"
     stroke-width="20"
     stroke-opacity="1"
     stroke-linejoin="round"
     id="path170"
     style="stroke-linecap:round;stroke-width:12;stroke-miterlimit:4;stroke-dasharray:none" />
  <path
     d="m 1088.38,218.76 c 1.99,0.42 3.93,0.77 30.99,4.3 8.18,1.01 34.02,4.26 38.91,5.81 4.11,1.34 8.38,3.49 11.28,5.88 2.61,2.2 16.16,21.61 17.28,25.13 0.73,2.38 1.59,8.62 1.25,12.08 -0.38,3.57 -1.86,10.34 -2.81,12.54 -1.3,2.96 -5.72,10.4 -8.1,14.23 -3.29,5.14 -6.51,9.52 -8.62,10.96 -3.16,2.1 -7.88,4.23 -10.27,4.03 -1.14,-0.11 -5.8,-1.19 -6.33,-1.52 -0.27,-0.16 -0.46,-0.5 -0.58,-1.02"
     fill="none"
     stroke="#838383"
     stroke-width="20"
     stroke-opacity="1"
     stroke-linejoin="round"
     id="path172"
     style="stroke-linecap:round;stroke-width:12;stroke-miterlimit:4;stroke-dasharray:none" />
  <path
     d="m 1153.91,310.42 c 0,0 -0.78,0.94 -0.78,0.94 4.22,0.76 9.17,2.28 12.29,3.96 2.6,1.46 4.97,4.7 6.49,8.44 3.28,8.27 5.86,20.3 6.41,29.1 0.42,7.25 0,18.36 -1.29,28.96 -0.59,4.46 -1.65,12.61 -2.12,16.31 -0.4,3.28 0.13,6.67 1.11,8.58"
     fill="none"
     stroke="#838383"
     stroke-width="20"
     stroke-opacity="1"
     stroke-linejoin="round"
     id="path174"
     style="stroke-linecap:round;stroke-width:12;stroke-miterlimit:4;stroke-dasharray:none" />
  <path
     d="m 1073.51,397.69 c 0.21,-0.05 0.44,-0.05 0.67,0.01 5.53,1.3 8.84,1.76 13.97,2.08 10.4,0.41 20.32,0.34 20.38,0.35"
     fill="none"
     stroke="#838383"
     stroke-width="20"
     stroke-opacity="1"
     stroke-linejoin="round"
     id="path176"
     style="stroke-linecap:round;stroke-width:12;stroke-miterlimit:4;stroke-dasharray:none" />
  <path
     d="m 1120.74,315.69 c -0.41,7.99 -2.75,22.66 -3.93,29.56 -1.51,8.52 -4.69,27.86 -5.26,33.15 -0.63,6.08 -0.81,19.62 -0.67,22.73 0.01,0.47 0.02,1.18 0.03,2.14"
     fill="none"
     stroke="#838383"
     stroke-width="20"
     stroke-opacity="1"
     stroke-linejoin="round"
     id="path178"
     style="stroke-linecap:round;stroke-width:12;stroke-miterlimit:4;stroke-dasharray:none" />
  <path
     d="m 1120.58,319.24 c 1.94,-0.41 4.42,-0.54 6.36,-0.14 1.95,0.43 5.46,2.2 6.61,3.43 1.59,1.75 3.89,7.52 4.47,10.99 1.89,11.78 1.59,45.76 2.38,58.37 0.12,2.05 0.68,4.7 0.75,5.1"
     fill="none"
     stroke="#838383"
     stroke-width="20"
     stroke-opacity="1"
     stroke-linejoin="round"
     id="path180"
     style="stroke-linecap:round;stroke-width:12;stroke-miterlimit:4;stroke-dasharray:none" />
  <path
     d="m 1177.5,406.95 c 0,0 -0.48,0.47 -0.48,0.47 -8.45,-3.62 -15.83,-5.91 -24.27,-7.15 -2.91,-0.41 -11.02,-1.33 -11.82,-1.45 -0.5,-0.07 -1.47,-0.24 -2.92,-0.5"
     fill="none"
     stroke="#838383"
     stroke-width="20"
     stroke-opacity="1"
     stroke-linejoin="round"
     id="path182"
     style="stroke-linecap:round;stroke-width:12;stroke-miterlimit:4;stroke-dasharray:none" />
  <path
     d="m 1123.6,249.89 c 0.29,-0.44 0.5,-0.74 0.63,-0.9 0.13,-0.16 0.36,-0.41 0.7,-0.74 0.28,5.92 -0.07,19.35 -0.3,26.57 -0.34,8.31 -0.92,22.23 -1.29,24.38 0.07,-0.41 0.62,-0.94 1.56,-1.14 0.15,-0.03 5.43,-0.74 6.7,-1.06 2.64,-0.7 8.87,-5.04 10.84,-7.47 2.28,-2.88 4.05,-9.02 4.01,-12.51 -0.08,-2.95 -2.06,-9.02 -3.56,-11.54 -1.55,-2.54 -6.06,-7.28 -8.55,-8.81 -1.46,-0.85 -3.92,-1.67 -5.47,-1.74 -2.28,-0.07 -8.26,1.39 -9.46,1.69"
     fill="none"
     stroke="#838383"
     stroke-width="20"
     stroke-opacity="1"
     stroke-linejoin="round"
     id="path184"
     style="stroke-linecap:round;stroke-width:12;stroke-miterlimit:4;stroke-dasharray:none" />
  <path
     d="m 1246.61,237.41 c 0,0 0.52,-2.76 0.52,-2.76 -1.43,3.44 -10.96,44.49 -14.2,55.76 -4.06,12.98 -12.33,39.58 -16.47,54.41 -3.87,15.11 -11.4,45.16 -15.06,60.09 -0.42,1.66 -0.49,2.7 -0.39,4.84 0.74,1.4 2.06,1.81 6.82,3.63 18.34,7.04 27.31,8.1 29.72,8.21"
     fill="none"
     stroke="#838383"
     stroke-width="20"
     stroke-opacity="1"
     stroke-linejoin="round"
     id="path186"
     style="stroke-linecap:round;stroke-width:12;stroke-miterlimit:4;stroke-dasharray:none" />
  <path
     d="m 1249.35,240.21 c 0,0 -3.03,-0.31 -3.03,-0.31 2.74,2.15 28.54,8.59 37.77,11.82"
     fill="none"
     stroke="#838383"
     stroke-width="20"
     stroke-opacity="1"
     stroke-linejoin="round"
     id="path188"
     style="stroke-linecap:round;stroke-width:12;stroke-miterlimit:4;stroke-dasharray:none" />
  <path
     d="m 1282.86,249.89 c 0,0 1.04,-1.89 1.04,-1.89 0.17,3.18 -0.14,7.13 -1.01,10.27 -0.79,2.82 -15.13,43.6 -20.14,59.23 -2.66,9.09 -6.33,23.83 -7.22,31.14 -0.06,0.48 -2.19,22.81 -2.8,25.95 -1.22,6.15 -11.07,46.19 -11.15,46.49 -0.13,0.44 -0.41,1.33 -0.85,2.67"
     fill="none"
     stroke="#838383"
     stroke-width="20"
     stroke-opacity="1"
     stroke-linejoin="round"
     id="path190"
     style="stroke-linecap:round;stroke-width:12;stroke-miterlimit:4;stroke-dasharray:none" />
  <path
     d="m 1374.02,342.4 c 0,0 0.22,-0.26 0.22,-0.26 2.43,2.25 8.19,7.09 10.96,9.25 5.83,4.49 21.66,12.07 21.81,12.21 0.17,0.15 0.29,0.45 0.35,0.88"
     fill="none"
     stroke="#838383"
     stroke-width="20"
     stroke-opacity="1"
     stroke-linejoin="round"
     id="path192"
     style="stroke-linecap:round;stroke-width:12;stroke-miterlimit:4;stroke-dasharray:none" />
  <path
     d="m 1373.34,344.64 c 0,0 -1.33,-0.55 -1.33,-0.55"
     fill="none"
     stroke="#838383"
     stroke-width="20"
     stroke-opacity="1"
     stroke-linejoin="round"
     id="path194"
     style="stroke-linecap:round;stroke-width:12;stroke-miterlimit:4;stroke-dasharray:none" />
  <path
     d="m 1405.18,360.38 c 0,0 1.1,-0.02 1.1,-0.02 1.46,-2.9 4.48,-7.98 5.33,-10.43 0.23,-0.67 3.23,-10.91 4.44,-15.13 1.37,-4.91 2,-9.11 1.88,-14.44 -0.19,-4.01 -1.67,-11.11 -3.02,-13.91 -1.5,-3.03 -5.82,-8.22 -7.71,-10.05 -4.48,-4.29 -20.55,-13.43 -25,-15.33 -3.3,-1.37 -15.42,-3.69 -24.11,-3.99 -2.8,-0.09 -6.15,1.42 -11.64,4.48 -3.76,2.16 -11.84,6.81 -13.05,7.94 -0.04,0.04 -7.55,9.5 -8.15,10.32 -4.74,6.49 -8.21,15.94 -10.33,22.31 -0.8,2.39 -1.24,3.85 -1.61,5.05 -0.1,0.32 -0.26,0.8 -0.49,1.43"
     fill="none"
     stroke="#838383"
     stroke-width="20"
     stroke-opacity="1"
     stroke-linejoin="round"
     id="path196"
     style="stroke-linecap:round;stroke-width:12;stroke-miterlimit:4;stroke-dasharray:none" />
  <path
     d="m 1375.18,342.7 c 0,0 -0.49,0.79 -0.49,0.79 1.04,-2.33 2.06,-6.57 2.4,-10.59 0.26,-3.58 -1.12,-8.96 -2.97,-12.5 -1.95,-3.65 -4.47,-7.08 -5.99,-7.94 -2.27,-1.22 -5.17,-1.73 -6.87,-1.09 -1.25,0.5 -5,5.18 -6.25,7.65 -2.06,4.13 -15.5,38.41 -20.57,52.37 -8.49,24.74 -11.5,34.46 -12.26,39.78 -0.25,1.75 0.41,3.91 1.63,5.35 0.9,1.03 5.39,2.59 7.8,2.74 1.95,0.08 6.26,-1.9 8.49,-3.72 2.27,-1.88 6.91,-7.9 8.59,-10.76 3.24,-5.63 3.88,-13 3.82,-13.81 0,0 -8.84,-4.03 -8.84,-4.03 2.57,-6.22 9.39,-22.08 12.8,-26.92 1.16,-1.64 1.47,-2.23 1.32,-2.4"
     fill="none"
     stroke="#838383"
     stroke-width="20"
     stroke-opacity="1"
     stroke-linejoin="round"
     id="path198"
     style="stroke-linecap:round;stroke-width:12;stroke-miterlimit:4;stroke-dasharray:none" />
  <path
     d="m 1361.97,357.71 c -0.02,0.46 0.85,1.4 10.43,5.09 6.68,2.65 20.8,10.99 22.14,12.4 0.27,0.29 0.64,0.87 1.11,1.76"
     fill="none"
     stroke="#838383"
     stroke-width="20"
     stroke-opacity="1"
     stroke-linejoin="round"
     id="path200"
     style="stroke-linecap:round;stroke-width:12;stroke-miterlimit:4;stroke-dasharray:none" />
  <path
     d="m 1401.24,374.28 c -0.62,3.11 -6.53,16.22 -9.65,23.09 -4.06,8.88 -11.52,25.38 -14.92,32.99 -5.55,12.81 -10.7,28.22 -10.75,28.31 -0.08,0.16 -0.23,0.32 -0.44,0.48"
     fill="none"
     stroke="#838383"
     stroke-width="20"
     stroke-opacity="1"
     stroke-linejoin="round"
     id="path202"
     style="stroke-linecap:round;stroke-width:12;stroke-miterlimit:4;stroke-dasharray:none" />
  <path
     d="m 1365.05,467.65 c 0,0 0.33,-0.14 0.33,-0.14 -2.43,-1.34 -8.77,-2.84 -9.19,-2.95 -3.72,-0.99 -22.69,-10.97 -22.97,-11.66 -0.31,-0.78 -0.34,-2.99 -0.23,-4.58"
     fill="none"
     stroke="#838383"
     stroke-width="20"
     stroke-opacity="1"
     stroke-linejoin="round"
     id="path204"
     style="stroke-linecap:round;stroke-width:12;stroke-miterlimit:4;stroke-dasharray:none" />
  <path
     d="m 1338.8,434.74 c 0,0 0.91,-1.1 0.91,-1.1 0.14,-0.09 -0.03,0.47 -0.88,2.88 -1.49,4.24 -4.12,11.7 -5.26,14.92"
     fill="none"
     stroke="#838383"
     stroke-width="20"
     stroke-opacity="1"
     stroke-linejoin="round"
     id="path206"
     style="stroke-linecap:round;stroke-width:12;stroke-miterlimit:4;stroke-dasharray:none" />
  <path
     d="m 1337.99,436.18 c 0.19,0 0.33,0.02 0.41,0.04 0.08,0.02 0.22,0.09 0.42,0.19 -2.33,1.78 -7.65,5.81 -10.03,7.07 -1.76,0.93 -10.27,3.4 -11.06,3.42 -2.27,0.03 -11.47,-3.14 -13.9,-4.08 -4.72,-1.87 -10.93,-5.43 -13.6,-8.4 -2.43,-2.77 -4.29,-5.75 -5.17,-8.82 -0.78,-2.84 -1.52,-10.32 -1.37,-11.73 0.39,-3.4 5.97,-19.78 8.62,-26.91 2.69,-6.93 9.92,-24.28 10.96,-27.16 1.38,-3.89 11.89,-41.09 11.92,-41.26 0.08,-0.48 0.24,-1.7 0.49,-3.68"
     fill="none"
     stroke="#838383"
     stroke-width="20"
     stroke-opacity="1"
     stroke-linejoin="round"
     id="path208"
     style="stroke-linecap:round;stroke-width:12;stroke-miterlimit:4;stroke-dasharray:none" />
  <path
     d="m 1488.14,332.8 c 0.28,-0.25 0.53,-0.53 0.77,-0.83 0.51,-0.62 0.98,-1.25 1.43,-1.89 0.38,-0.55 -33.4,47.28 -34.88,49.39 -0.4,0.57 -60.77,98.27 -61,98.76 -0.09,0.2 -0.17,0.47 -0.22,0.8"
     fill="none"
     stroke="#838383"
     stroke-width="20"
     stroke-opacity="1"
     stroke-linejoin="round"
     id="path210"
     style="stroke-linecap:round;stroke-width:12;stroke-miterlimit:4;stroke-dasharray:none" />
  <path
     d="m 1391.08,478.43 c -0.12,0.02 0.27,0.33 1.77,1.34 4.5,3.02 17.81,13.29 22.37,15.94 1.66,0.96 6.67,3.51 7.54,3.95"
     fill="none"
     stroke="#838383"
     stroke-width="20"
     stroke-opacity="1"
     stroke-linejoin="round"
     id="path212"
     style="stroke-linecap:round;stroke-width:12;stroke-miterlimit:4;stroke-dasharray:none" />
  <path
     d="m 1470.02,435.5 c 0,0 0.42,-0.12 0.42,-0.12 -0.61,1.42 -1.08,2.22 -2.36,3.84 -9.96,12.73 -34.91,43.72 -39.72,49.83 -6.44,8.4 -9.1,12.6 -10.04,14.33 -0.19,0.36 -0.41,0.8 -0.66,1.32"
     fill="none"
     stroke="#838383"
     stroke-width="20"
     stroke-opacity="1"
     stroke-linejoin="round"
     id="path214"
     style="stroke-linecap:round;stroke-width:12;stroke-miterlimit:4;stroke-dasharray:none" />
  <path
     d="m 1471.41,439.07 c 4.52,1.8 16.06,11.07 16.06,11.59"
     fill="none"
     stroke="#838383"
     stroke-width="20"
     stroke-opacity="1"
     stroke-linejoin="round"
     id="path216"
     style="stroke-linecap:round;stroke-width:12;stroke-miterlimit:4;stroke-dasharray:none" />
  <path
     d="m 1486.82,445.82 c -0.01,1.67 -3.58,6.94 -5.64,10.03 -6.67,9.91 -11.75,18.37 -15.99,23.66 -4.98,5.97 -16.15,19.4 -17.71,21.91 -1.21,1.98 -4.99,8.45 -4.8,8.99"
     fill="none"
     stroke="#838383"
     stroke-width="20"
     stroke-opacity="1"
     stroke-linejoin="round"
     id="path218"
     style="stroke-linecap:round;stroke-width:12;stroke-miterlimit:4;stroke-dasharray:none" />
  <path
     d="m 1443.65,512.57 c 0.73,1.47 1.2,2.37 1.41,2.72 0.96,1.51 18.54,11.1 21.98,14.55 0.55,0.55 1.71,2.24 2.31,2.88"
     fill="none"
     stroke="#838383"
     stroke-width="20"
     stroke-opacity="1"
     stroke-linejoin="round"
     id="path220"
     style="stroke-linecap:round;stroke-width:12;stroke-miterlimit:4;stroke-dasharray:none" />
  <path
     d="m 1472.46,536.68 c 0.55,-0.42 1.15,-1.04 2.61,-2.75 7.12,-8.24 15.64,-16.04 19.55,-21.16 3.16,-4.19 13.71,-18.89 18.24,-25.12 1.03,-1.37 11.13,-14.87 14.26,-20.63 6.08,-11.57 40.79,-71.37 41.16,-72.21 0.57,-1.32 1.05,-3.17 1.16,-4.15"
     fill="none"
     stroke="#838383"
     stroke-width="20"
     stroke-opacity="1"
     stroke-linejoin="round"
     id="path222"
     style="stroke-linecap:round;stroke-width:12;stroke-miterlimit:4;stroke-dasharray:none" />
  <path
     d="m 1487.29,339.14 c -0.03,-0.15 0.01,-0.25 0.14,-0.3 1.51,-0.53 6.58,0.92 11.64,3.13 1.92,0.87 10.99,5.24 13.76,6.74 3.55,1.95 5.01,3.32 5.8,4.56 0.21,0.33 0.53,0.94 0.97,1.82"
     fill="none"
     stroke="#838383"
     stroke-width="20"
     stroke-opacity="1"
     stroke-linejoin="round"
     id="path224"
     style="stroke-linecap:round;stroke-width:12;stroke-miterlimit:4;stroke-dasharray:none" />
  <path
     d="m 1524.9,353.1 c -1.58,3.93 -3.67,8.19 -5.28,10.5 -1.8,2.52 -10.77,13.46 -17.81,23.41 -14.62,21.53 -16.2,25.27 -16.64,26.51"
     fill="none"
     stroke="#838383"
     stroke-width="20"
     stroke-opacity="1"
     stroke-linejoin="round"
     id="path226"
     style="stroke-linecap:round;stroke-width:12;stroke-miterlimit:4;stroke-dasharray:none" />
  <path
     d="m 1487.59,411.3 c 0.28,0.92 0.89,1.75 2.79,3.62 9.35,9.13 12.84,10.69 13.02,10.43"
     fill="none"
     stroke="#838383"
     stroke-width="20"
     stroke-opacity="1"
     stroke-linejoin="round"
     id="path228"
     style="stroke-linecap:round;stroke-width:12;stroke-miterlimit:4;stroke-dasharray:none" />
  <path
     d="m 1501.39,424 c 0,0 -0.09,0.42 -0.09,0.42 3.24,-2.92 16.61,-16.73 17.62,-17.89 3.72,-4.3 22.24,-33.06 23.78,-34.59 0.37,-0.37 0.92,-0.74 1.65,-1.11"
     fill="none"
     stroke="#838383"
     stroke-width="20"
     stroke-opacity="1"
     stroke-linejoin="round"
     id="path230"
     style="stroke-linecap:round;stroke-width:12;stroke-miterlimit:4;stroke-dasharray:none" />
  <path
     d="m 1542.81,369.2 c -0.08,0.45 0.81,1.93 2.04,3.19 0.42,0.43 18.03,14.59 19.69,16.52"
     fill="none"
     stroke="#838383"
     stroke-width="20"
     stroke-opacity="1"
     stroke-linejoin="round"
     id="path232"
     style="stroke-linecap:round;stroke-width:12;stroke-miterlimit:4;stroke-dasharray:none" />
  <path
     d="m 1616.74,419.82 c 0,0 -29.52,29.31 -29.52,29.31 0,0 3.29,-5.34 3.29,-5.34"
     fill="none"
     stroke="#838383"
     stroke-width="20"
     stroke-opacity="1"
     stroke-linejoin="round"
     id="path234"
     style="stroke-linecap:round;stroke-width:12;stroke-miterlimit:4;stroke-dasharray:none" />
  <path
     d="m 1615.72,423.1 c 0.58,0.31 1.31,1.07 2.18,2.46 1.9,3.03 4.95,9.11 6.36,10.93 3.42,4.39 16.67,16.92 22.6,22.42 8.5,7.88 11.09,10.49 17.63,17.93 8.09,9.34 12.36,13.9 14.12,15.41"
     fill="none"
     stroke="#838383"
     stroke-width="20"
     stroke-opacity="1"
     stroke-linejoin="round"
     id="path236"
     style="stroke-linecap:round;stroke-width:12;stroke-miterlimit:4;stroke-dasharray:none" />
  <path
     d="m 1683.79,482.78 c -1.65,1.44 -3.47,3.23 -7.57,7.46 -5.89,6 -15.66,15.81 -21.27,20.76"
     fill="none"
     stroke="#838383"
     stroke-width="20"
     stroke-opacity="1"
     stroke-linejoin="round"
     id="path238"
     style="stroke-linecap:round;stroke-width:12;stroke-miterlimit:4;stroke-dasharray:none" />
  <path
     d="m 1657.78,512.4 c -0.19,0.35 -0.42,0.6 -0.7,0.76 -0.29,0.16 -1.01,0.45 -2.18,0.86 -4.91,-3.83 -14.24,-13.95 -18.27,-19.68 -0.43,-0.6 -0.85,-1.21 -1.28,-1.82 -2.06,1.76 -14.38,15.94 -18.74,20.67 -6.75,7.09 -33.34,32.65 -44.86,44.5 -15.72,16.16 -30.11,29.62 -37.29,36.29"
     fill="none"
     stroke="#838383"
     stroke-width="20"
     stroke-opacity="1"
     stroke-linejoin="round"
     id="path240"
     style="stroke-linecap:round;stroke-width:12;stroke-miterlimit:4;stroke-dasharray:none" />
  <path
     d="m 1592.13,446.96 c 0.05,0.83 0.6,2.46 1.42,3.68 0.71,1.05 9.91,11.29 10.38,12.04 -1.92,3.67 -10.77,16.24 -14.66,20.95 -5.02,6.03 -33.61,35.37 -42.01,44.94 -5.3,6.34 -15.28,18.99 -19.44,24.1 -5.66,6.83 -12.15,12.19 -15.1,15.11 0,0 1.24,-3.73 1.24,-3.73"
     fill="none"
     stroke="#838383"
     stroke-width="20"
     stroke-opacity="1"
     stroke-linejoin="round"
     id="path242"
     style="stroke-linecap:round;stroke-width:12;stroke-miterlimit:4;stroke-dasharray:none" />
  <path
     d="m 1509.9,567.31 c 0.14,0.57 0.25,0.98 0.35,1.22 0.65,1.62 3.89,6.98 6.7,10.09 2.3,2.52 10.96,9.7 14.7,13.42"
     fill="none"
     stroke="#838383"
     stroke-width="20"
     stroke-opacity="1"
     stroke-linejoin="round"
     id="path244"
     style="stroke-linecap:round;stroke-width:12;stroke-miterlimit:4;stroke-dasharray:none" />
  <path
     d="m 1638.21,616.54 c 0.1,-0.11 0.13,-0.24 0.09,-0.39 -0.68,-2.33 -9.3,-14.35 -16.37,-23.28 -2.37,-2.93 -5.14,-5.58 -5.6,-6.05 -0.3,-0.3 -0.99,-1.04 -2.06,-2.21"
     fill="none"
     stroke="#838383"
     stroke-width="20"
     stroke-opacity="1"
     stroke-linejoin="round"
     id="path246"
     style="stroke-linecap:round;stroke-width:12;stroke-miterlimit:4;stroke-dasharray:none" />
  <path
     d="m 1618.44,585.8 c -5.81,4.01 -21.97,15.41 -24.94,18.14 -1.82,1.71 -5.08,7.07 -6.4,10.33 -1.12,2.83 -2.72,9.99 -2.88,12.96 -0.26,5.5 2.58,19.49 5.33,25.17 1.39,2.82 5.65,8.98 7.8,11.31 2.15,2.3 8.07,7.12 10.75,8.78 4.69,2.87 18.64,8.12 25.05,9.78 4.51,1.14 11.57,2.25 14.72,2.01 2.96,-0.26 7.8,-1.52 11.13,-2.84 2.67,-1.08 8.68,-4.32 11.32,-6.69 2.33,-2.13 5.29,-5.81 6.8,-9.46 0.97,-2.38 6.66,-20.87 7.68,-26.43 0.56,-3.13 2.73,-23.02 3.17,-26.84 1.07,-8.54 4.18,-21.97 7.26,-28.81 0.76,-1.68 4.9,-10.09 6.48,-12.26 0.83,-1.09 2.97,-2.46 4.36,-2.93 1.69,-0.5 4.36,-0.49 6.43,0.03 2.04,0.56 4.68,1.99 5.89,3.24 1.18,1.28 2.35,3.91 2.67,5.96 0.51,3.77 -0.81,11.39 -2.2,14 -1.45,2.63 -4.45,6.39 -7.1,9 -2.03,1.99 -7.71,6.81 -8.17,7.37 0,0 0.44,1.52 0.44,1.52"
     fill="none"
     stroke="#838383"
     stroke-width="20"
     stroke-opacity="1"
     stroke-linejoin="round"
     id="path248"
     style="stroke-linecap:round;stroke-width:12;stroke-miterlimit:4;stroke-dasharray:none" />
  <path
     d="m 1705.77,607.45 c 0.28,0.46 0.72,1.1 2.15,3.06 7.81,10.75 12.09,17.14 14.16,21.03 2.75,-2.33 15.86,-11.27 19.62,-15.92 2.34,-2.93 5.43,-8.42 6.86,-12.14 1.2,-3.18 2.78,-9.68 3.12,-12.2 0.23,-1.73 0.5,-9.14 -0.05,-12.01 -0.43,-2.17 -3.26,-11.46 -4.43,-13.56 -2.98,-5.29 -17.26,-20.29 -20.1,-22.85 -3.41,-3.03 -10.09,-6.49 -12.79,-7.35 -3.28,-1.01 -9.49,-1.2 -13.08,-0.67 -2.96,0.46 -10.2,2.55 -12.93,3.59 -3.68,1.44 -8.86,4.65 -12.56,7.57 -2.97,2.37 -8.77,7.18 -12.36,10.34 -3.44,3.07 -6.15,6.51 -7.67,9.87 -1.09,2.49 -3.33,8.44 -3.75,10.99 -0.65,4.16 -0.89,16.86 -0.06,27.68 0.68,8.03 2.2,26.94 1.31,31.08 -0.67,2.89 -3.74,7 -6.88,9.82 -1.04,0.93 -9.91,7.95 -11.92,8.28 -1.12,0.15 -6.64,-2 -8.25,-3.88 -1.56,-1.91 -3.19,-8.28 -3.07,-10.21 0.21,-2.94 3.12,-12.4 4.21,-14.98 0.82,-1.87 2.9,-5.11 4.11,-6.3 0.39,-0.38 3.93,-2.99 4.67,-3.79 1.01,-1.09 2.01,-2.83 2.38,-3.9"
     fill="none"
     stroke="#838383"
     stroke-width="20"
     stroke-opacity="1"
     stroke-linejoin="round"
     id="path250"
     style="stroke-linecap:round;stroke-width:12;stroke-miterlimit:4;stroke-dasharray:none" />
  <path
     d="m 630.26,1595.22 c 0.6,-0.26 1.05,-0.49 1.36,-0.67 0.3,-0.19 0.9,-0.59 1.77,-1.22 -4.49,5.36 -13.89,16.71 -17.98,21.95 -4.14,5.45 -25.22,38.38 -33.93,52.14 -3.43,5.43 -10.88,19.51 -12.11,22.84 -1.2,3.3 -2.09,9.83 -2.22,12.08 -0.12,2.36 0.51,7.97 1.25,10.5 0.81,2.66 3.84,8.34 5.11,9.94 2.61,3.21 12.83,12.51 18.7,16.93 6.72,4.99 18.44,11.91 23.95,13 3.18,0.6 9.95,0.55 12.11,0.24 2.55,-0.39 9.01,-2.29 11.97,-3.75 6.59,-3.31 13.15,-9.15 21.63,-17.7 8.78,-8.99 16.12,-16.95 20.29,-22.49 2.89,-3.85 12.34,-18.42 16.56,-25.07 6.3,-10.07 9.28,-15.27 13.53,-25.67 1.57,-3.93 5.1,-13.04 5.5,-14.28 1.38,-4.31 1.97,-9.97 1.99,-13.5 0,-3.52 -0.95,-10.43 -1.65,-13.34 -1,-3.93 -4.27,-10.12 -6.32,-12.31 -3.92,-4.09 -10.33,-8.62 -19.52,-14.37 -2.68,-1.67 -9.62,-5.89 -10.42,-6.3 -2.03,-1 -8.84,-2.88 -11.63,-3.21 -2.87,-0.32 -9.75,0.05 -12.49,0.76 -4.84,1.31 -17.69,8.21 -24.22,12.83 -1.85,1.32 -7.33,5.91 -8.16,7.08 -0.63,0.88 -1.96,3.43 -2.83,5.19"
     fill="none"
     stroke="#838383"
     stroke-width="20"
     stroke-opacity="1"
     stroke-linejoin="round"
     id="path252"
     style="stroke-linecap:round;stroke-width:12;stroke-miterlimit:4;stroke-dasharray:none" />
  <path
     d="m 667.16,1612.9 c -0.11,0.15 -0.23,0.3 -0.37,0.46 -3.08,3.54 -5.6,6.71 -7.78,9.98 -20.2,31.16 -43.81,62.79 -48.19,69.27 -2.37,3.53 -4.5,7.48 -6.32,11.75 -0.76,1.8 -1.13,4.2 -0.76,5.69 0.37,1.33 2.06,3.05 3.73,4.05 1.96,1.09 3.82,1.67 5.43,1.66 2.59,-0.08 7.17,-2.53 10.21,-4.75 7.43,-5.4 15.15,-12.4 18.86,-17.11 3.22,-4.1 13.05,-18.98 17.39,-25.69 5.91,-9.49 11.62,-19.27 15.64,-27.56 1.5,-3.1 2.34,-5.76 2.9,-9.46 0.72,-5.14 0.45,-8.86 -1.24,-10.34 -2.18,-1.78 -6.37,-3.03 -8.92,-2.48 -2.52,0.61 -6.81,3.92 -8.42,6.04 -0.22,0.29 -2.2,3.25 -3.06,4.47 -0.41,0.59 -0.83,1.18 -1.24,1.77"
     fill="none"
     stroke="#838383"
     stroke-width="20"
     stroke-opacity="1"
     stroke-linejoin="round"
     id="path254"
     style="stroke-linecap:round;stroke-width:12;stroke-miterlimit:4;stroke-dasharray:none" />
  <path
     d="m 757.39,1632.73 c 0,0 0.1,0.15 0.1,0.15 -1.82,3.11 -3.52,6.41 -5.28,10.43 -11.43,26.23 -39.12,91.11 -45.93,109.44 -2.36,6.16 -9.68,19.2 -16.21,29.63 -3.86,6.04 -11.29,17.81 -11.21,18.2 0.47,1.8 11.42,6.34 24.56,11.31 3.84,1.48 7.22,3.4 8.59,2.71 0.55,-0.3 21.99,-37.23 29.26,-49.09 6.19,-11.08 12.1,-24.32 12.69,-25.03 2.89,1.1 9.33,5.6 10.17,7.56 1,2.45 0.2,7.77 -0.54,10.3 -1.61,5.34 -21.48,51.7 -22.75,55.44 -0.48,1.44 -1.35,4.67 -1.59,5.41 -0.12,0.37 -0.38,1.1 -0.78,2.18"
     fill="none"
     stroke="#838383"
     stroke-width="20"
     stroke-opacity="1"
     stroke-linejoin="round"
     id="path256"
     style="stroke-linecap:round;stroke-width:12;stroke-miterlimit:4;stroke-dasharray:none" />
  <path
     d="m 755.38,1636 c 0,0 -0.64,-0.67 -0.64,-0.67 2.89,3.09 15.69,10.53 24.18,13.87 6.72,2.69 20.7,8.81 24.92,11.15 5.85,3.27 13.22,9.21 17.76,14.28 1.58,1.71 8.35,7.71 9.51,9.42 1.44,2.22 1.31,6.24 0.67,12.12 -0.58,5.3 -1.75,10.18 -3.01,13.36 -1.57,3.87 -4.12,8.85 -6.24,11.82 -1.24,1.72 -7.47,9.33 -9.58,11.74 -3.37,3.84 -6.51,6.74 -8.66,7.82 -3.15,1.53 -6.43,2.56 -9.48,2.92 -2.44,0.25 -9.73,-0.71 -11.78,-1.47 -0.48,-0.18 -1.27,-0.59 -2.37,-1.22"
     fill="none"
     stroke="#838383"
     stroke-width="20"
     stroke-opacity="1"
     stroke-linejoin="round"
     id="path258"
     style="stroke-linecap:round;stroke-width:12;stroke-miterlimit:4;stroke-dasharray:none" />
  <path
     d="m 786.5,1740.65 c -0.18,0.38 -0.21,0.68 -0.09,0.9 0.15,0.26 7.33,7.03 9.53,9.62 2.28,2.72 5.13,8.07 6.12,10.66 1,2.67 1.71,6.93 1.77,9.21 0.03,2.7 -6.32,23.68 -7.4,26.75 -0.97,2.68 -13.56,23.63 -14.03,24.49 -0.99,1.87 -3.89,8.34 -4.73,11.32 -0.85,3.1 0.19,8.56 1.07,8.98 0.28,0.14 1.03,0.27 2.23,0.39"
     fill="none"
     stroke="#838383"
     stroke-width="20"
     stroke-opacity="1"
     stroke-linejoin="round"
     id="path260"
     style="stroke-linecap:round;stroke-width:12;stroke-miterlimit:4;stroke-dasharray:none" />
  <path
     d="m 736.37,1820.06 c 0,0 -1.38,1.39 -1.38,1.39 3.04,3.15 7.33,5.5 11.08,7.3 18.4,8.7 26.02,12.92 27.32,12.94 0.55,0.01 1.86,-0.14 3.9,-0.43"
     fill="none"
     stroke="#838383"
     stroke-width="20"
     stroke-opacity="1"
     stroke-linejoin="round"
     id="path262"
     style="stroke-linecap:round;stroke-width:12;stroke-miterlimit:4;stroke-dasharray:none" />
  <path
     d="m 776.52,1680.97 c 0.25,-0.6 0.35,-0.89 0.3,-0.87 -2.59,1.05 -15.58,34.09 -16.54,38.36 -0.26,1.32 0.54,2.48 2.03,3.01 1.84,0.59 7.96,0.88 10.61,0.28 3.03,-0.75 7.62,-3.07 9.71,-5.29 2.26,-2.48 4.87,-8.45 5.63,-12.19 0.61,-3.17 0.47,-10.26 -0.09,-12.57 -0.59,-2.28 -2.17,-5.28 -3.52,-6.61 -0.77,-0.73 -3.22,-1.95 -4.62,-2.47 -1.55,-0.55 -4.48,-1.08 -7.14,-1.33 -0.66,-0.05 -1.75,-0.12 -3.26,-0.2"
     fill="none"
     stroke="#838383"
     stroke-width="20"
     stroke-opacity="1"
     stroke-linejoin="round"
     id="path264"
     style="stroke-linecap:round;stroke-width:12;stroke-miterlimit:4;stroke-dasharray:none" />
  <path
     d="m 914.93,1690.57 c 0,0 0.2,-1.02 0.2,-1.02 -0.04,-0.01 -0.09,0.09 -0.14,0.27 -2.93,9.48 -11.96,50.78 -13.77,61.91 -0.85,5.69 -10.43,44.74 -13.15,59.53 -1.41,8.87 -7.81,56.76 -7.89,57.24 -0.45,2.96 -0.45,3.8 -0.02,3.91 0,0 35.7,5.21 35.7,5.21 2.47,-7.04 6.74,-19.45 8.22,-27.05 1.48,-8.18 4.88,-26.66 5.61,-29.85 0.98,-4.3 5.74,-20.7 7.19,-28.07 1.22,-6.52 3.23,-21.01 4.32,-26.46 0.92,-4.52 5.47,-21.67 7.31,-28.34 2.98,-11.84 4.75,-32.76 4.71,-35.39 -13.24,-1.18 -33.22,-2.64 -38.18,-2.44 -0.39,0.01 -1.11,0.02 -2.18,0.04"
     fill="none"
     stroke="#838383"
     stroke-width="20"
     stroke-opacity="1"
     stroke-linejoin="round"
     id="path266"
     style="stroke-linecap:round;stroke-width:12;stroke-miterlimit:4;stroke-dasharray:none" />
  <path
     d="m 1018.73,1713.26 c 0.02,0.81 0.01,1.8 -0.05,3.2 -0.17,4.54 1.43,22.57 2.15,30.14 0.73,8.04 0.44,42.27 0.66,56.86 1.63,30.35 3.67,72.96 3.95,75.32 0.52,4.19 2.4,9.04 2.8,12.45"
     fill="none"
     stroke="#838383"
     stroke-width="20"
     stroke-opacity="1"
     stroke-linejoin="round"
     id="path268"
     style="stroke-linecap:round;stroke-width:12;stroke-miterlimit:4;stroke-dasharray:none" />
  <path
     d="m 1018.57,1717.03 c 1.13,-0.65 1.89,-1.03 2.3,-1.12 0.55,-0.12 26.03,2.8 30.34,2.64 6.67,-0.35 21.18,-1.08 27.73,-0.58 6.42,0.51 18.67,3.42 24.26,5.78 2.89,1.25 8.41,4.87 10.63,7.41 2.24,2.61 4.59,8.07 5.06,10.62 1.04,6.09 -0.43,23.24 -1.98,28.97 -1.11,4 -3.83,9.9 -5.98,12.98 -1.91,2.71 -6.89,7.93 -8.85,9.6 -3.21,2.7 -6.99,4.81 -9.63,5.88 2.43,1.21 8.6,3.21 11,4.3 3.03,1.4 6.6,4.01 8.76,6.45 1.91,2.22 5.12,8.11 6.48,11.92 1.13,3.26 2.85,10.18 3.27,13.92 0.42,3.96 0.25,11.82 -0.28,15.74 -0.49,3.55 -2.26,11.34 -3.32,14.7 -1.21,3.8 -4.57,10.36 -6.57,12.52 -3.19,3.34 -16.21,10.64 -21.5,12.41 -5.84,1.9 -16.97,2.92 -27.22,2.62 -12.3,-0.6 -34.88,-3.32 -35.52,-3.4 -0.42,-0.06 -1.3,-0.19 -2.64,-0.4"
     fill="none"
     stroke="#838383"
     stroke-width="20"
     stroke-opacity="1"
     stroke-linejoin="round"
     id="path270"
     style="stroke-linecap:round;stroke-width:12;stroke-miterlimit:4;stroke-dasharray:none" />
  <path
     d="m 1059.5,1808.83 c -0.11,-0.28 -0.25,-0.48 -0.4,-0.6 -0.65,-0.47 -1.07,-0.46 -1.28,0.02 -0.4,1 0.78,44.05 1.29,47.41 0.44,2.74 2.41,6.78 4.01,8.89 2.87,0.1 5.95,-0.76 8.62,-2.85 2.13,-1.72 5.91,-6.26 7.33,-8.55 1.51,-2.52 3.66,-9.26 4.09,-11.73 0.42,-2.57 -0.2,-7.73 -0.62,-9.65 -0.49,-2.12 -3.51,-7.93 -5.81,-10.83 -1.24,-1.53 -4.34,-4.29 -5.9,-5.23 -1.63,-0.94 -5.67,-2.32 -7.51,-2.55 -1.52,-0.18 -4.83,-0.11 -7.01,0.02"
     fill="none"
     stroke="#838383"
     stroke-width="20"
     stroke-opacity="1"
     stroke-linejoin="round"
     id="path272"
     style="stroke-linecap:round;stroke-width:12;stroke-miterlimit:4;stroke-dasharray:none" />
  <path
     d="m 1058.23,1741.78 c -0.1,0.38 -0.16,0.7 -0.18,0.97 -0.03,0.41 -0.53,22.26 -0.67,29.89 0.05,3.98 0.63,8.78 1.46,10.94 0.61,1.48 1.18,2.32 1.72,2.49 1.36,0.4 9.82,-4.5 10.95,-5.33 3.02,-2.24 7.5,-7.28 8.84,-10.92 0.58,-1.64 0.86,-6.34 0.43,-8.5 -0.48,-2.21 -2.65,-6.63 -4.13,-8.36 -1.94,-2.2 -6.33,-4.81 -9.03,-5.04 -1.89,-0.12 -4.01,0.12 -6,0.68 -0.41,0.12 -1.18,0.37 -2.31,0.74"
     fill="none"
     stroke="#838383"
     stroke-width="20"
     stroke-opacity="1"
     stroke-linejoin="round"
     id="path274"
     style="stroke-linecap:round;stroke-width:12;stroke-miterlimit:4;stroke-dasharray:none" />
  <path
     d="m 1141.18,1707.76 c 2.89,14.12 8.95,44.41 12.11,60.58 2.74,15.07 9.35,51.34 9.96,55.66 2,16.29 6.58,57.36 7.42,60.42 0.57,2.06 1.66,4.76 2.39,6.09"
     fill="none"
     stroke="#838383"
     stroke-width="20"
     stroke-opacity="1"
     stroke-linejoin="round"
     id="path276"
     style="stroke-linecap:round;stroke-width:12;stroke-miterlimit:4;stroke-dasharray:none" />
  <path
     d="m 1143.12,1707.13 c -0.01,-0.45 1.71,-1.48 3.7,-2.03 0.51,-0.14 12.95,-1.48 14.3,-1.68 2.92,-0.44 10.63,-2.03 13.75,-2.09 1.32,-0.03 4.26,0.13 6.21,0.27 1.44,3.31 4.55,16.7 6.5,27.16 2.61,15.47 7.9,48.63 8.97,58.62 1.16,13.45 9.21,86.96 9.09,87.38 -0.28,0.93 -4.22,2.05 -11.03,3.99 -3.61,1.03 -11.83,3.31 -14.41,3.56 -3.34,0.3 -7.68,-0.59 -8.75,-0.8"
     fill="none"
     stroke="#838383"
     stroke-width="20"
     stroke-opacity="1"
     stroke-linejoin="round"
     id="path278"
     style="stroke-linecap:round;stroke-width:12;stroke-miterlimit:4;stroke-dasharray:none" />
  <path
     d="m 1194.54,1698.9411 c 0,0 -0.41,-1.91 -0.41,-1.91 0,0 13.31,37.96 13.31,37.96 0,0 26.06,-7.66 26.06,-7.66 3.25,14.3 10.4,44.31 14.3,60.03 4.55,17.12 11.74,52.42 13.54,59.31 0.41,1.55 2.45,8.75 3.35,11.38 1.29,3.66 2.38,7.01 2.8,8.31"
     fill="none"
     stroke="#838383"
     stroke-width="20"
     stroke-opacity="1"
     stroke-linejoin="round"
     id="path280"
     style="stroke-linecap:round;stroke-width:12;stroke-miterlimit:4;stroke-dasharray:none" />
  <path
     d="m 1196.33,1702.66 c -0.06,-0.46 0.03,-0.77 0.27,-0.95 1.09,-0.82 8.26,-2.11 10.72,-2.85 5.5,-1.67 23.42,-9.48 30.02,-11.78 15.33,-5.31 41.87,-9.94 43.59,-9.66 1.38,0.26 3.26,1.56 4.28,2.98 6.24,9.06 9.39,26.25 9.14,26.68 -0.98,1.47 -6.82,3.46 -10.93,4.32 -3.92,0.79 -13.61,2.82 -13.66,2.87 -0.95,1.18 0.7,5.66 2.34,11.69 1.71,6.55 6.17,24.53 7.02,27.34 1.55,5.08 14.16,42.89 18.28,56.75 3.88,14.15 7.84,30.05 8.68,34.12 0.35,1.7 0.64,3.62 0.8,5.21 0.04,0.38 0.09,0.95 0.14,1.7"
     fill="none"
     stroke="#838383"
     stroke-width="20"
     stroke-opacity="1"
     stroke-linejoin="round"
     id="path282"
     style="stroke-linecap:round;stroke-width:12;stroke-miterlimit:4;stroke-dasharray:none" />
  <path
     d="m 1266.19,1860.84 c -0.22,0.19 -0.39,0.36 -0.5,0.49 -0.45,0.63 -0.5,0.98 -0.14,1.06 1.29,0.24 19.32,-4.98 26.54,-7.99 7.63,-3.17 15.85,-4.73 16.45,-4.81 0.5,-0.07 1.65,-0.21 3.46,-0.41"
     fill="none"
     stroke="#838383"
     stroke-width="20"
     stroke-opacity="1"
     stroke-linejoin="round"
     id="path284"
     style="stroke-linecap:round;stroke-width:12;stroke-miterlimit:4;stroke-dasharray:none" />
  <path
     d="m 1294.29,1668.01 c 0.15,0 0.28,0.06 0.38,0.18 0.02,0.02 10.33,15.02 14.74,21.28 6.1,8.84 9.16,14.65 14.1,25.55 3.27,7.45 10.53,24.48 11.44,26.41 3.46,7.03 11,22.15 15.1,30.25 5.02,10.15 7.93,16.52 10.99,25.07 2.81,7.59 8.9,23.68 11.33,28.26 0.52,1.02 2.23,4.29 2.92,4.53 1.11,0.32 6.44,-2.21 12.3,-4.64 14.97,-6.08 37.29,-15.13 44.63,-18.12 4.92,-2.02 8.35,-3.59 11.04,-5.86 2.91,-2.66 9.92,-8.99 10.49,-10.47 0.65,-1.86 -11.62,-28.04 -12.98,-30.91 -3.91,0.32 -20.43,6.22 -28.06,9.14 -5.31,2.13 -9.74,4.03 -13.4,5.7 -2.42,1.11 -6.2,3.79 -7.87,4.73 -0.83,-0.64 -7.79,-19.98 -10.18,-25.45 -2.1,-4.78 -3.61,-7.38 -3.5,-7.79 0.73,-2.33 4.76,-4.17 11.9,-7.83 11.87,-6.14 20.05,-10.7 21.42,-11.77 1.37,-1.13 2.19,-2.6 1.93,-3.79 -1.13,-4.62 -9.05,-19.03 -11.71,-21.74 -0.74,-0.71 -2.18,-1.19 -3.25,-1.06 -4.2,0.6 -16.67,4.84 -23.96,8.88 -3.5,1.96 -9.49,6.24 -10.51,5.96 -1.26,-0.4 -3.45,-2.86 -4.29,-4.51 -2.8,-5.54 -10.6,-24.13 -10.93,-25.13 -0.32,-1.11 0.01,-2.55 0.89,-3.51 3.13,-3.23 15.58,-8.14 26.89,-12.06 10.08,-3.57 14.4,-6.28 15.46,-7.24"
     fill="none"
     stroke="#838383"
     stroke-width="20"
     stroke-opacity="1"
     stroke-linejoin="round"
     id="path286"
     style="stroke-linecap:round;stroke-width:12;stroke-miterlimit:4;stroke-dasharray:none" />
  <path
     d="m 1391.62,1664.67 c -0.56,-1.15 -0.86,-1.73 -2.01,-3.87 -4.67,-8.67 -14.81,-23.28 -15.79,-25.34 -5.61,2.07 -19.2,9.29 -26.49,13.21 -10.81,5.77 -16,8.17 -26.39,11.46 -7.29,2.36 -16.69,8.24 -18.41,9.11 -2.73,1.36 -7.25,2.88 -8.21,3.2"
     fill="none"
     stroke="#838383"
     stroke-width="20"
     stroke-opacity="1"
     stroke-linejoin="round"
     id="path288"
     style="stroke-linecap:round;stroke-width:12;stroke-miterlimit:4;stroke-dasharray:none" />
  <path
     d="m 1479.28,1633.71 c 0.65,-0.58 2.55,-2.3 3.8,-3.44 20.4,-18.63 22.88,-20.04 24.39,-20.82 0.11,-0.06 -3.04,-4.61 -5.76,-7.36 -4.36,-4.35 -16.81,-12.18 -22.47,-14.26 -3.48,-1.25 -8.51,-2.24 -12.63,-2.45 -3.24,-0.15 -9.18,0.41 -13.19,1.87 -2.8,1.05 -21.06,9.93 -23.8,11.9 -2.17,1.59 -6.96,5.82 -9.37,8.63 -2.78,3.29 -6.01,8.06 -7.58,11.24 -1.32,2.71 -3.27,8.54 -3.69,10.87 -0.46,2.75 -0.46,9.02 0.31,12.3 0.94,3.77 3.94,10.06 6.43,13.39 2.3,3.02 7.36,7.55 10.17,9.61 2.71,1.97 8.11,5.06 11.25,6.56 3.06,1.44 10.14,3.57 13.49,4.1 4.12,0.61 26.81,-0.49 30.78,-0.44 4.29,0.08 11.17,0.94 15.34,2.01 4.64,1.22 10.06,2.91 12.87,4.42 0.84,0.46 7.23,4.37 9.44,6.08 2.77,2.18 6.45,6.82 7.19,10.01 0.27,1.25 0.49,5.8 0.35,6.94 -0.23,1.6 -1.37,4 -2.44,5.04 -2.05,1.91 -7.73,3.3 -10.21,3.31 -1.65,-0.01 -7.12,-0.74 -10.05,-1.85 -8.91,-3.45 -15.34,-8.91 -16.06,-9.58 -0.32,-0.29 -0.86,-0.74 -1.6,-1.36"
     fill="none"
     stroke="#838383"
     stroke-width="20"
     stroke-opacity="1"
     stroke-linejoin="round"
     id="path290"
     style="stroke-linecap:round;stroke-width:12;stroke-miterlimit:4;stroke-dasharray:none" />
  <path
     d="m 1485.52,1700.41 c -1.16,0.73 -14.18,8.46 -24.84,15.58 -1.03,0.73 -4.99,3.47 -5.3,3.94 -0.28,0.42 -0.67,1.46 -1.2,3.11"
     fill="none"
     stroke="#838383"
     stroke-width="20"
     stroke-opacity="1"
     stroke-linejoin="round"
     id="path292"
     style="stroke-linecap:round;stroke-width:12;stroke-miterlimit:4;stroke-dasharray:none" />
  <path
     d="m 1457.03,1717.35 c -0.17,-0.27 -0.31,-0.49 -0.41,-0.65 -0.23,-0.34 -0.45,-0.68 -0.67,-1.02 1.29,4.44 10.17,16.41 14.46,20.67 2.68,2.65 7.97,6.7 10.71,8.19 3.05,1.62 8.19,3.22 12.29,3.92 3.88,0.62 23.54,-2.31 27.72,-3.16 2.77,-0.57 7.93,-2.11 10.67,-3.89 1.88,-1.24 10.84,-8.66 11.24,-9.02 2.4,-2.17 5.35,-6.13 7.23,-10.24 0.32,-0.7 3.82,-9.68 5.18,-13.28 1.57,-4.26 2.25,-8.04 2.22,-12.27 -0.11,-3.72 -0.88,-8 -2.1,-11.5 -1.04,-2.94 -4.22,-8.8 -6.03,-11.14 -2.08,-2.66 -7.76,-8.1 -10.81,-10.42 -3.26,-2.45 -8.89,-6.08 -11.88,-7.52 -6.31,-3.02 -17.68,-5.58 -23.91,-6.36 -2.96,-0.37 -24.75,-2.33 -28.92,-3.65 -7.5,-2.45 -18.18,-7.05 -21.98,-10.26 -2.31,-2 -6.07,-8.46 -6.29,-10.92 -0.1,-1.54 0.73,-4 1.74,-5.06 1.99,-1.98 7.33,-2.42 10.4,-1.97 3.42,0.57 16.09,7.5 20.57,11.66 1.14,1.07 2.87,2.86 3.82,3.92"
     fill="none"
     stroke="#838383"
     stroke-width="20"
     stroke-opacity="1"
     stroke-linejoin="round"
     id="path294"
     style="stroke-linecap:round;stroke-width:12;stroke-miterlimit:4;stroke-dasharray:none" />
  <path
     d="m 287.89,573.95 c -2.68,3.92 -11.84,16.83 -20.34,28.82 -5.38,8.21 -12.13,19.63 -15.66,26.09 -6.92,13.43 -20.49,44.5 -26.79,59.96 -6.21,15.74 -20.33,57.28 -30.13,85.15 -10.91,33.14 -29.07,87.04 -31.15,94.18 -1.51,5.38 -4.8,21.1 -6.13,28.8 -2.11,13.54 -5.75,47.89 -7.32,64.25 -1.17,15.36 -3.24,45.79 -4.13,60.87 -0.56,15.39 -1.5,49.77 -1.02,61.33 0.9,15.73 4.98,50.12 6.19,58.63 1.82,12.04 9.17,43.3 12.85,58.34 4.5,17.76 12.84,50.57 16.67,65.62 6.21,24.2 7.97,30.09 16.46,52.38 6.52,16.87 18.81,48.98 24.59,64.23 1.76,4.82 3.91,11.56 4.75,14.24 0.18,0.57 0.36,1.14 0.54,1.72"
     fill="none"
     stroke="#838383"
     stroke-width="20"
     stroke-opacity="1"
     stroke-linejoin="round"
     id="path296"
     style="stroke-linecap:round" />
  <path
     d="m 205.03,1357.67 c 0,0 0.39,0 0.39,0 0.26,2.21 0.38,3.02 0.81,5.51 0.95,5.37 6.37,19.68 7.62,22.63 3.59,8.46 22.49,44.85 29.44,57.95 17.3,32.02 57.38,105.71 65.13,118.56 6.42,10.16 21.43,33.36 30.02,46.39 5.69,8.37 12.4,17.43 16.38,22.53 5.21,6.46 30.78,33.85 41.41,45 11.63,11.67 35.25,33.72 47.37,44.17 24.03,20.25 76.68,67.02 94.14,81.74 5.86,4.77 17.37,14.05 23.04,18.57 13.18,10.44 32.34,25.57 38.32,30.28 1.03,0.81 2.9,2.28 3.74,2.94"
     fill="none"
     stroke="#838383"
     stroke-width="20"
     stroke-opacity="1"
     stroke-linejoin="round"
     id="path298"
     style="stroke-linecap:round" />
  <path
     d="m 565.33,1825.12 c 0,0 -0.15,-0.27 -0.15,-0.27 1.23,0.6 3.62,1.73 4.77,2.26 7.12,3.36 23.21,11.2 26.58,13.67 4.88,3.6 44.19,25.45 50.17,28.2 10.7,4.91 86.88,32.22 115.97,42.79 14.97,4.91 45.99,13.78 61.57,18 14.47,3.67 40.46,10.07 52.2,13.57 13.16,4.1 44.87,11.52 60.73,15.09 15.82,3.22 47.18,8.66 62.45,10.4 9.9,0.99 46.64,2.52 62.5,2.55 9.97,-0.13 47.74,-2.64 63.61,-3.92 15.27,-1.58 45.97,-4.96 62.46,-7.68 21.97,-4.13 86.31,-18.44 120.36,-24.75 18.75,-3.81 44.12,-10.05 60.37,-15.15 14.85,-4.92 46.58,-16.69 57.93,-21.48 18.42,-8.11 40.86,-18.87 54.51,-25.8 12.14,-6.52 38.67,-21.75 51.57,-29.83 16.29,-10.67 37.04,-25.59 52.93,-38.37 2.66,-2.17 7.47,-6.08 9.63,-7.83 4.34,-3.54 7.73,-6.12 8.68,-6.85"
     fill="none"
     stroke="#838383"
     stroke-width="20"
     stroke-opacity="1"
     stroke-linejoin="round"
     id="path300"
     style="stroke-linecap:round" />
  <path
     d="m 1579.36,1810.82 c 0,0 -0.51,-0.1 -0.51,-0.1 1.52,-1.43 2.31,-2.14 3.78,-3.39 24.75,-21.23 74.23,-63.73 98.97,-85 8.63,-7.7 30.12,-27.92 41.68,-38.99 11.5,-11.62 32.73,-34.85 42.41,-46.05 7.37,-8.72 29.84,-37.94 36.4,-47.5 11.61,-17.56 23.81,-37.75 30.68,-50.17 6.9,-12.94 21.61,-40.91 29.42,-55.94 7.72,-15.6 22.73,-46.78 30.03,-62.37 6.53,-14.51 18.26,-40.81 25.91,-59.06 4.89,-12.77 14.42,-39.7 19.27,-53.77 3.26,-9.92 12.93,-43.36 16.58,-58.01 3.67,-15.82 8.64,-44.36 10.92,-59.56 1.99,-15.29 5.65,-46.31 7.33,-62.03 1.24,-15.78 3.37,-47 3.95,-62.19 0.25,-14.85 0.39,-44.64 0.04,-59.57 -0.65,-14.81 -3.06,-44.65 -4.62,-59.19 -2.03,-15.72 -7.01,-46.18 -10.6,-61.37 -1.89,-7.31 -5.83,-20.59 -9.06,-29.36 -7.93,-20.11 -13.26,-30.28 -14.6,-32.82 -1.04,-1.96 -2.53,-4.81 -3.38,-6.52"
     fill="none"
     stroke="#838383"
     stroke-width="20"
     stroke-opacity="1"
     stroke-linejoin="round"
     id="path302"
     style="stroke-linecap:round" />
  <path
     d="m 1946.22,858.14 c 0,0 0.53,0.41 0.53,0.41 0.02,-2.38 -0.03,-8.42 -1.03,-12.99 -0.98,-4.36 -14.21,-41.96 -19.83,-56.26 -7.49,-18.13 -17.18,-45.15 -22.42,-61.3 -2.51,-7.92 -7.23,-22.34 -9.44,-28.84 -3.14,-8.53 -6.42,-16 -10.48,-23.97 -15.8,-29.01 -38.91,-71.09 -46.21,-84.16 -5.8,-9.97 -8.91,-14.93 -15.14,-23.77 -8.53,-11.5 -27.5,-36.74 -37.93,-50.46 -10.05,-12.95 -29.74,-38 -39.39,-50.09 -9.7,-11.67 -30.64,-36.17 -41.89,-49 -10.18,-11.26 -31.18,-34.05 -40.8,-43.91 -10.71,-10.5 -32.09,-30.57 -46.84,-43.22 -11.93,-9.87 -32.69,-26.18 -48.41,-36.93 -12.57,-8.26 -39.98,-26.04 -54.82,-35.56 -11.95,-7.56 -35.46,-21.63 -50.2,-29.22 -13.58,-6.51 -45.44,-21.24 -57.06,-25.98 -14.9,-5.84 -43.7,-16.38 -57.96,-21.13 -13.88,-4.34 -42.46,-12.24 -56.39,-15.87 -16,-3.8 -48,-11.09 -64,-14.58 -14.61,-3.03 -46.16,-9.3 -59.07,-10.94 -9.03,-1.07 -39.97,-3.6 -59.47,-4.04 -7.7,-0.03 -22.89,0.08 -30.37,0.22 -7.33,0.28 -20.89,2.51 -32.54,5.07 -4.48,1.08 -12.52,3.03 -16.09,3.91 -1.38,0.33 -3.87,0.94 -4.97,1.21"
     fill="none"
     stroke="#838383"
     stroke-width="20"
     stroke-opacity="1"
     stroke-linejoin="round"
     id="path304"
     style="stroke-linecap:round" />
  <path
     d="m 1073.33,137.87 c 0.05,-0.04 0.02,-0.07 -0.1,-0.09 -2.67,-0.41 -19.32,1.68 -25.77,3.18 -5.28,1.19 -44.83,5.34 -60.68,7.03 -15.15,1.95 -46.11,6.41 -62,9.32 -14.02,2.83 -34.36,7.75 -56.15,13.97 -14.66,4.33 -46.25,13.74 -63.17,18.81 -15.92,5 -41.95,13.42 -57.95,19.34 -12.31,4.89 -39.35,16.13 -54.02,23.38 -13.35,6.84 -41.48,21.61 -56.25,29.53 -14.75,8.36 -43.99,25.36 -58.48,34 -12.56,7.72 -39.35,24.62 -50.61,32.2 -11.64,8.14 -38.73,27.51 -48.34,35.04 -12.03,9.85 -36.72,31.2 -48.73,42.22 -11.92,11.27 -31.57,30.71 -44.57,44.74 -9.35,10.29 -26.74,30.23 -38.3,45.67 -9.43,12.96 -28.21,39.29 -37.57,52.66 -20.33,30.55 -34.06,54.05 -35.49,56.56 -0.49,0.87 -0.98,1.74 -1.47,2.62"
     fill="none"
     stroke="#838383"
     stroke-width="20"
     stroke-opacity="1"
     stroke-linejoin="round"
     id="path306"
     style="stroke-linecap:round" />
</svg>
