<?xml version="1.0" standalone="no"?>
 <!DOCTYPE svg PUBLIC "-//W3C//DTD SVG 1.1//EN" 
 "http://www.w3.org/Graphics/SVG/1.1/DTD/svg11.dtd"> 
<svg xmlns="http://www.w3.org/2000/svg" version="1.1" 
    width="6.5278cm" height="1.27cm" viewBox="0 0 25700 5000 ">
<title>SVG Picture created as pi_pwm_audio-F.Mask.svg date 2018/06/18 05:11:09 </title>
  <desc>Picture generated by PCBNEW </desc>
<g style="fill:#000000; fill-opacity:1;stroke:#000000; stroke-opacity:1;
stroke-linecap:round; stroke-linejoin:round; "
 transform="translate(0 0) scale(1 1)">
</g>
<g style="fill:#000000; fill-opacity:0.0; 
stroke:#000000; stroke-width:-0.000393701; stroke-opacity:1; 
stroke-linecap:round; stroke-linejoin:round;">
</g>
<g style="fill:#000000; fill-opacity:0.0; 
stroke:#000000; stroke-width:59.0551; stroke-opacity:1; 
stroke-linecap:round; stroke-linejoin:round;">
<path d="M21555 721
L3680 721
" />
<path d="M21555 4221
L21555 721
" />
<path d="M3680 4221
L21555 4221
" />
<path d="M3680 721
L3680 4221
" />
</g>
<g style="fill:#000000; fill-opacity:0.0; 
stroke:#000000; stroke-width:0; stroke-opacity:1; 
stroke-linecap:round; stroke-linejoin:round;">
</g>
<g style="fill:#000000; fill-opacity:1.0; 
stroke:#000000; stroke-width:0; stroke-opacity:1; 
stroke-linecap:round; stroke-linejoin:round;">
<polyline style="fill-rule:evenodd;"
points="8827,827
8827,1614
7882,1614
7882,827
8827,827
" /> 
<polyline style="fill-rule:evenodd;"
points="7252,827
7252,1614
6307,1614
6307,827
7252,827
" /> 
<polyline style="fill-rule:evenodd;"
points="8827,3327
8827,4114
7882,4114
7882,3327
8827,3327
" /> 
<polyline style="fill-rule:evenodd;"
points="7252,3327
7252,4114
6307,4114
6307,3327
7252,3327
" /> 
<polyline style="fill-rule:evenodd;"
points="9853,881
10306,881
10306,1511
9853,1511
9853,881
" /> 
<polyline style="fill-rule:evenodd;"
points="9853,1629
10306,1629
10306,2259
9853,2259
9853,1629
" /> 
<polyline style="fill-rule:evenodd;"
points="9828,2657
10281,2657
10281,3287
9828,3287
9828,2657
" /> 
<polyline style="fill-rule:evenodd;"
points="9828,3405
10281,3405
10281,4035
9828,4035
9828,3405
" /> 
<polyline style="fill-rule:evenodd;"
points="5399,915
5911,915
5911,1545
5399,1545
5399,915
" /> 
<polyline style="fill-rule:evenodd;"
points="5399,1781
5911,1781
5911,2411
5399,2411
5399,1781
" /> 
<polyline style="fill-rule:evenodd;"
points="5399,2531
5911,2531
5911,3161
5399,3161
5399,2531
" /> 
<polyline style="fill-rule:evenodd;"
points="5399,3397
5911,3397
5911,4027
5399,4027
5399,3397
" /> 
<polyline style="fill-rule:evenodd;"
points="9074,873
9586,873
9586,1503
9074,1503
9074,873
" /> 
<polyline style="fill-rule:evenodd;"
points="9074,1739
9586,1739
9586,2369
9074,2369
9074,1739
" /> 
<polyline style="fill-rule:evenodd;"
points="9074,2581
9586,2581
9586,3211
9074,3211
9074,2581
" /> 
<polyline style="fill-rule:evenodd;"
points="9074,3447
9586,3447
9586,4077
9074,4077
9074,3447
" /> 
<polyline style="fill-rule:evenodd;"
points="11959,1742
11666,2161
11150,1800
11443,1380
11959,1742
" /> 
<polyline style="fill-rule:evenodd;"
points="11250,1245
10956,1664
10440,1303
10734,884
11250,1245
" /> 
<polyline style="fill-rule:evenodd;"
points="11696,2732
11989,3151
11473,3513
11180,3093
11696,2732
" /> 
<polyline style="fill-rule:evenodd;"
points="10986,3229
11280,3648
10764,4009
10470,3590
10986,3229
" /> 
<polyline style="fill-rule:evenodd;"
points="15799,1477
15799,965
16428,965
16428,1477
15799,1477
" /> 
<polyline style="fill-rule:evenodd;"
points="16665,1477
16665,965
17295,965
17295,1477
16665,1477
" /> 
<polyline style="fill-rule:evenodd;"
points="15799,3952
15799,3440
16428,3440
16428,3952
15799,3952
" /> 
<polyline style="fill-rule:evenodd;"
points="16665,3952
16665,3440
17295,3440
17295,3952
16665,3952
" /> 
<polyline style="fill-rule:evenodd;"
points="18820,1715
18820,2227
18190,2227
18190,1715
18820,1715
" /> 
<polyline style="fill-rule:evenodd;"
points="17953,1715
17953,2227
17324,2227
17324,1715
17953,1715
" /> 
<polyline style="fill-rule:evenodd;"
points="18820,2615
18820,3127
18190,3127
18190,2615
18820,2615
" /> 
<polyline style="fill-rule:evenodd;"
points="17953,2615
17953,3127
17324,3127
17324,2615
17953,2615
" /> 
<circle cx="4805.12" cy="1471.26" r="374.016" /> 
</g>
<g style="fill:#000000; fill-opacity:1.0; 
stroke:#000000; stroke-width:39.3701; stroke-opacity:1; 
stroke-linecap:round; stroke-linejoin:round;">
</g>
<g style="fill:#000000; fill-opacity:1.0; 
stroke:#000000; stroke-width:0; stroke-opacity:1; 
stroke-linecap:round; stroke-linejoin:round;">
<polyline style="fill-rule:evenodd;"
points="19531,2845
19531,2097
20279,2097
20279,2845
19531,2845
" /> 
<circle cx="4805.12" cy="3471.26" r="374.016" /> 
</g>
<g style="fill:#000000; fill-opacity:1.0; 
stroke:#000000; stroke-width:39.3701; stroke-opacity:1; 
stroke-linecap:round; stroke-linejoin:round;">
</g>
<g style="fill:#000000; fill-opacity:1.0; 
stroke:#000000; stroke-width:0; stroke-opacity:1; 
stroke-linecap:round; stroke-linejoin:round;">
<circle cx="12530.1" cy="1496.26" r="374.016" /> 
</g>
<g style="fill:#000000; fill-opacity:1.0; 
stroke:#000000; stroke-width:39.3701; stroke-opacity:1; 
stroke-linecap:round; stroke-linejoin:round;">
</g>
<g style="fill:#000000; fill-opacity:1.0; 
stroke:#000000; stroke-width:0; stroke-opacity:1; 
stroke-linecap:round; stroke-linejoin:round;">
<polyline style="fill-rule:evenodd;"
points="12156,2845
12156,2097
12904,2097
12904,2845
12156,2845
" /> 
<circle cx="12530.1" cy="3496.26" r="374.016" /> 
</g>
<g style="fill:#000000; fill-opacity:1.0; 
stroke:#000000; stroke-width:39.3701; stroke-opacity:1; 
stroke-linecap:round; stroke-linejoin:round;">
</g>
<g style="fill:#000000; fill-opacity:1.0; 
stroke:#000000; stroke-width:0; stroke-opacity:1; 
stroke-linecap:round; stroke-linejoin:round;">
<circle cx="19905.1" cy="1471.26" r="374.016" /> 
</g>
<g style="fill:#000000; fill-opacity:1.0; 
stroke:#000000; stroke-width:39.3701; stroke-opacity:1; 
stroke-linecap:round; stroke-linejoin:round;">
</g>
<g style="fill:#000000; fill-opacity:1.0; 
stroke:#000000; stroke-width:0; stroke-opacity:1; 
stroke-linecap:round; stroke-linejoin:round;">
<polyline style="fill-rule:evenodd;"
points="4431,2845
4431,2097
5179,2097
5179,2845
4431,2845
" /> 
<circle cx="19905.1" cy="3471.26" r="374.016" /> 
</g>
<g style="fill:#000000; fill-opacity:1.0; 
stroke:#000000; stroke-width:39.3701; stroke-opacity:1; 
stroke-linecap:round; stroke-linejoin:round;">
</g>
<g style="fill:#000000; fill-opacity:1.0; 
stroke:#000000; stroke-width:0; stroke-opacity:1; 
stroke-linecap:round; stroke-linejoin:round;">
<circle cx="20905.1" cy="2471.26" r="374.016" /> 
</g>
<g style="fill:#000000; fill-opacity:1.0; 
stroke:#000000; stroke-width:39.3701; stroke-opacity:1; 
stroke-linecap:round; stroke-linejoin:round;">
</g>
<g style="fill:#000000; fill-opacity:1.0; 
stroke:#000000; stroke-width:0; stroke-opacity:1; 
stroke-linecap:round; stroke-linejoin:round;">
<polyline style="fill-rule:evenodd;"
points="17027,2569
17027,2884
16279,2884
16279,2569
17027,2569
" /> 
<polyline style="fill-rule:evenodd;"
points="17027,2313
17027,2628
16279,2628
16279,2313
17027,2313
" /> 
<polyline style="fill-rule:evenodd;"
points="17027,2057
17027,2372
16279,2372
16279,2057
17027,2057
" /> 
<polyline style="fill-rule:evenodd;"
points="15980,2057
15980,2372
15232,2372
15232,2057
15980,2057
" /> 
<polyline style="fill-rule:evenodd;"
points="15980,2313
15980,2628
15232,2628
15232,2313
15980,2313
" /> 
<polyline style="fill-rule:evenodd;"
points="15980,2569
15980,2884
15232,2884
15232,2569
15980,2569
" /> 
<circle cx="4803.15" cy="1473.23" r="196.85" /> 
</g>
<g style="fill:#000000; fill-opacity:1.0; 
stroke:#000000; stroke-width:39.3701; stroke-opacity:1; 
stroke-linecap:round; stroke-linejoin:round;">
</g>
<g style="fill:#000000; fill-opacity:1.0; 
stroke:#000000; stroke-width:0; stroke-opacity:1; 
stroke-linecap:round; stroke-linejoin:round;">
<circle cx="4803.15" cy="3471.26" r="196.85" /> 
</g>
<g style="fill:#000000; fill-opacity:1.0; 
stroke:#000000; stroke-width:39.3701; stroke-opacity:1; 
stroke-linecap:round; stroke-linejoin:round;">
</g>
<g style="fill:#000000; fill-opacity:1.0; 
stroke:#000000; stroke-width:0; stroke-opacity:1; 
stroke-linecap:round; stroke-linejoin:round;">
<circle cx="20905.5" cy="2467.32" r="196.85" /> 
</g>
<g style="fill:#000000; fill-opacity:1.0; 
stroke:#000000; stroke-width:39.3701; stroke-opacity:1; 
stroke-linecap:round; stroke-linejoin:round;">
</g> 
</svg>
