G04 #@! TF.FileFunction,Copper,L1,Top,Signal*
%FSLAX46Y46*%
G04 Gerber Fmt 4.6, Leading zero omitted, Abs format (unit mm)*
G04 Created by KiCad (PCBNEW 4.0.7) date 04/16/19 16:10:46*
%MOMM*%
%LPD*%
G01*
G04 APERTURE LIST*
%ADD10C,0.100000*%
%ADD11C,4.000500*%
%ADD12R,1.700000X1.700000*%
%ADD13O,1.700000X1.700000*%
%ADD14R,1.800000X1.200000*%
%ADD15C,0.250000*%
%ADD16C,3.000000*%
%ADD17C,1.500000*%
%ADD18C,2.000000*%
G04 APERTURE END LIST*
D10*
D11*
X-17526000Y-5080000D03*
X-27686000Y-5080000D03*
X-12954000Y-15240000D03*
X-2794000Y-15240000D03*
X-17526000Y-10160000D03*
X-27686000Y-10160000D03*
X-12954000Y-10160000D03*
X-2794000Y-10160000D03*
D12*
X-17780000Y-1270000D03*
D13*
X-15240000Y-1270000D03*
X-12700000Y-1270000D03*
D12*
X-12788900Y-19050000D03*
D13*
X-15328900Y-19050000D03*
X-17868900Y-19050000D03*
D14*
X-20828000Y-5080000D03*
X-20828000Y-7620000D03*
X-20828000Y-10160000D03*
X-20828000Y-12700000D03*
X-20828000Y-15240000D03*
X-9652000Y-15240000D03*
X-9652000Y-12700000D03*
X-9652000Y-10160000D03*
X-9652000Y-7620000D03*
X-9652000Y-5080000D03*
D15*
X-17780000Y-1270000D02*
X-17780000Y-4826000D01*
X-17780000Y-4826000D02*
X-17526000Y-5080000D01*
D16*
X-20828000Y-7620000D02*
X-20828000Y-5080000D01*
X-17526000Y-5080000D02*
X-20828000Y-5080000D01*
X-17780000Y-15240000D02*
X-20828000Y-15240000D01*
X-12954000Y-15240000D02*
X-17780000Y-15240000D01*
D15*
X-17780000Y-15240000D02*
X-17780000Y-18961100D01*
X-17780000Y-18961100D02*
X-17868900Y-19050000D01*
D16*
X-20828000Y-15240000D02*
X-20828000Y-12700000D01*
D17*
X-20828000Y-10160000D02*
X-18842503Y-10160000D01*
X-18842503Y-10160000D02*
X-19685000Y-10160000D01*
D16*
X-17526000Y-10160000D02*
X-18842503Y-10160000D01*
D18*
X-17526000Y-10160000D02*
X-19685000Y-10160000D01*
X-23495000Y-10160000D02*
X-22106390Y-10160000D01*
D16*
X-27686000Y-10160000D02*
X-23495000Y-10160000D01*
D17*
X-20828000Y-10160000D02*
X-22106390Y-10160000D01*
D15*
X-7620000Y-6350000D02*
X-8255000Y-6985000D01*
X-8255000Y-6985000D02*
X-9017000Y-6985000D01*
X-9017000Y-6985000D02*
X-9652000Y-7620000D01*
X-7620000Y-3810000D02*
X-7620000Y-6350000D01*
X-10160000Y-1270000D02*
X-7620000Y-3810000D01*
X-12700000Y-1270000D02*
X-10160000Y-1270000D01*
X-7620000Y-16510000D02*
X-7620000Y-14732000D01*
X-7620000Y-14732000D02*
X-9652000Y-12700000D01*
X-10160000Y-19050000D02*
X-7620000Y-16510000D01*
X-12788900Y-19050000D02*
X-10160000Y-19050000D01*
D16*
X-9652000Y-10160000D02*
X-12954000Y-10160000D01*
X-9652000Y-10160000D02*
X-2794000Y-10160000D01*
D18*
X-9652000Y-10160000D02*
X-9652000Y-12700000D01*
X-9652000Y-7620000D02*
X-9652000Y-10160000D01*
D15*
X-15240000Y-2540000D02*
X-12700000Y-5080000D01*
X-12700000Y-5080000D02*
X-9652000Y-5080000D01*
X-15240000Y-1270000D02*
X-15240000Y-2540000D01*
X-11430000Y-17780000D02*
X-9652000Y-16002000D01*
X-9652000Y-16002000D02*
X-9652000Y-15240000D01*
X-15328900Y-19050000D02*
X-14058900Y-17780000D01*
X-14058900Y-17780000D02*
X-11430000Y-17780000D01*
M02*
