G04 #@! TF.FileFunction,Legend,Bot*
%FSLAX46Y46*%
G04 Gerber Fmt 4.6, Leading zero omitted, Abs format (unit mm)*
G04 Created by KiCad (PCBNEW 4.0.7) date 04/16/19 16:10:46*
%MOMM*%
%LPD*%
G01*
G04 APERTURE LIST*
%ADD10C,0.100000*%
%ADD11C,0.200000*%
%ADD12C,0.300000*%
G04 APERTURE END LIST*
D10*
D11*
X-17945714Y-14782857D02*
X-17945714Y-13582857D01*
X-17945714Y-14040000D02*
X-18060000Y-13982857D01*
X-18288571Y-13982857D01*
X-18402857Y-14040000D01*
X-18460000Y-14097143D01*
X-18517143Y-14211429D01*
X-18517143Y-14554286D01*
X-18460000Y-14668571D01*
X-18402857Y-14725714D01*
X-18288571Y-14782857D01*
X-18060000Y-14782857D01*
X-17945714Y-14725714D01*
X-18917143Y-13982857D02*
X-19202857Y-14782857D01*
X-19488571Y-13982857D02*
X-19202857Y-14782857D01*
X-19088571Y-15068571D01*
X-19031428Y-15125714D01*
X-18917143Y-15182857D01*
X-21545715Y-14668571D02*
X-21488572Y-14725714D01*
X-21317143Y-14782857D01*
X-21202857Y-14782857D01*
X-21031429Y-14725714D01*
X-20917143Y-14611429D01*
X-20860000Y-14497143D01*
X-20802857Y-14268571D01*
X-20802857Y-14097143D01*
X-20860000Y-13868571D01*
X-20917143Y-13754286D01*
X-21031429Y-13640000D01*
X-21202857Y-13582857D01*
X-21317143Y-13582857D01*
X-21488572Y-13640000D01*
X-21545715Y-13697143D01*
X-22745715Y-14782857D02*
X-22345715Y-14211429D01*
X-22060000Y-14782857D02*
X-22060000Y-13582857D01*
X-22517143Y-13582857D01*
X-22631429Y-13640000D01*
X-22688572Y-13697143D01*
X-22745715Y-13811429D01*
X-22745715Y-13982857D01*
X-22688572Y-14097143D01*
X-22631429Y-14154286D01*
X-22517143Y-14211429D01*
X-22060000Y-14211429D01*
X-23260000Y-14782857D02*
X-23260000Y-13582857D01*
X-23831429Y-14782857D02*
X-23831429Y-13982857D01*
X-23831429Y-14097143D02*
X-23888572Y-14040000D01*
X-24002858Y-13982857D01*
X-24174286Y-13982857D01*
X-24288572Y-14040000D01*
X-24345715Y-14154286D01*
X-24345715Y-14782857D01*
X-24345715Y-14154286D02*
X-24402858Y-14040000D01*
X-24517144Y-13982857D01*
X-24688572Y-13982857D01*
X-24802858Y-14040000D01*
X-24860001Y-14154286D01*
X-24860001Y-14782857D01*
X-25431429Y-14782857D02*
X-25431429Y-13982857D01*
X-25431429Y-13582857D02*
X-25374286Y-13640000D01*
X-25431429Y-13697143D01*
X-25488572Y-13640000D01*
X-25431429Y-13582857D01*
X-25431429Y-13697143D01*
X-26460001Y-14725714D02*
X-26345715Y-14782857D01*
X-26117144Y-14782857D01*
X-26002858Y-14725714D01*
X-25945715Y-14611429D01*
X-25945715Y-14154286D01*
X-26002858Y-14040000D01*
X-26117144Y-13982857D01*
X-26345715Y-13982857D01*
X-26460001Y-14040000D01*
X-26517144Y-14154286D01*
X-26517144Y-14268571D01*
X-25945715Y-14382857D01*
X-27031429Y-14782857D02*
X-27031429Y-13982857D01*
X-27031429Y-14211429D02*
X-27088572Y-14097143D01*
X-27145715Y-14040000D01*
X-27260001Y-13982857D01*
X-27374286Y-13982857D01*
X-27831429Y-14725714D02*
X-27831429Y-14782857D01*
X-27774286Y-14897143D01*
X-27717143Y-14954286D01*
X-21145715Y-15982857D02*
X-21431429Y-16782857D01*
X-21717143Y-15982857D01*
X-22802858Y-16782857D02*
X-22117143Y-16782857D01*
X-22460001Y-16782857D02*
X-22460001Y-15582857D01*
X-22345715Y-15754286D01*
X-22231429Y-15868571D01*
X-22117143Y-15925714D01*
X-23317143Y-16668571D02*
X-23374286Y-16725714D01*
X-23317143Y-16782857D01*
X-23260000Y-16725714D01*
X-23317143Y-16668571D01*
X-23317143Y-16782857D01*
X-24117144Y-15582857D02*
X-24231429Y-15582857D01*
X-24345715Y-15640000D01*
X-24402858Y-15697143D01*
X-24460001Y-15811429D01*
X-24517144Y-16040000D01*
X-24517144Y-16325714D01*
X-24460001Y-16554286D01*
X-24402858Y-16668571D01*
X-24345715Y-16725714D01*
X-24231429Y-16782857D01*
X-24117144Y-16782857D01*
X-24002858Y-16725714D01*
X-23945715Y-16668571D01*
X-23888572Y-16554286D01*
X-23831429Y-16325714D01*
X-23831429Y-16040000D01*
X-23888572Y-15811429D01*
X-23945715Y-15697143D01*
X-24002858Y-15640000D01*
X-24117144Y-15582857D01*
X-448572Y-4057857D02*
X-1134286Y-4057857D01*
X-791429Y-5257857D02*
X-791429Y-4057857D01*
X-2220001Y-5257857D02*
X-1820001Y-4686429D01*
X-1534286Y-5257857D02*
X-1534286Y-4057857D01*
X-1991429Y-4057857D01*
X-2105715Y-4115000D01*
X-2162858Y-4172143D01*
X-2220001Y-4286429D01*
X-2220001Y-4457857D01*
X-2162858Y-4572143D01*
X-2105715Y-4629286D01*
X-1991429Y-4686429D01*
X-1534286Y-4686429D01*
X-2677143Y-4915000D02*
X-3248572Y-4915000D01*
X-2562858Y-5257857D02*
X-2962858Y-4057857D01*
X-3362858Y-5257857D01*
X-4448572Y-5143571D02*
X-4391429Y-5200714D01*
X-4220000Y-5257857D01*
X-4105714Y-5257857D01*
X-3934286Y-5200714D01*
X-3820000Y-5086429D01*
X-3762857Y-4972143D01*
X-3705714Y-4743571D01*
X-3705714Y-4572143D01*
X-3762857Y-4343571D01*
X-3820000Y-4229286D01*
X-3934286Y-4115000D01*
X-4105714Y-4057857D01*
X-4220000Y-4057857D01*
X-4391429Y-4115000D01*
X-4448572Y-4172143D01*
X-5191429Y-4057857D02*
X-5420000Y-4057857D01*
X-5534286Y-4115000D01*
X-5648572Y-4229286D01*
X-5705714Y-4457857D01*
X-5705714Y-4857857D01*
X-5648572Y-5086429D01*
X-5534286Y-5200714D01*
X-5420000Y-5257857D01*
X-5191429Y-5257857D01*
X-5077143Y-5200714D01*
X-4962857Y-5086429D01*
X-4905714Y-4857857D01*
X-4905714Y-4457857D01*
X-4962857Y-4229286D01*
X-5077143Y-4115000D01*
X-5191429Y-4057857D01*
X-6962858Y-4057857D02*
X-7648572Y-4057857D01*
X-7305715Y-5257857D02*
X-7305715Y-4057857D01*
X-7991429Y-5200714D02*
X-8162858Y-5257857D01*
X-8448572Y-5257857D01*
X-8562858Y-5200714D01*
X-8620001Y-5143571D01*
X-8677144Y-5029286D01*
X-8677144Y-4915000D01*
X-8620001Y-4800714D01*
X-8562858Y-4743571D01*
X-8448572Y-4686429D01*
X-8220001Y-4629286D01*
X-8105715Y-4572143D01*
X-8048572Y-4515000D01*
X-7991429Y-4400714D01*
X-7991429Y-4286429D01*
X-8048572Y-4172143D01*
X-8105715Y-4115000D01*
X-8220001Y-4057857D01*
X-8505715Y-4057857D01*
X-8677144Y-4115000D01*
X-9877144Y-5257857D02*
X-9477144Y-4686429D01*
X-9191429Y-5257857D02*
X-9191429Y-4057857D01*
X-9648572Y-4057857D01*
X-9762858Y-4115000D01*
X-9820001Y-4172143D01*
X-9877144Y-4286429D01*
X-9877144Y-4457857D01*
X-9820001Y-4572143D01*
X-9762858Y-4629286D01*
X-9648572Y-4686429D01*
X-9191429Y-4686429D01*
X-10620001Y-4057857D02*
X-10734286Y-4057857D01*
X-10848572Y-4115000D01*
X-10905715Y-4172143D01*
X-10962858Y-4286429D01*
X-11020001Y-4515000D01*
X-11020001Y-4800714D01*
X-10962858Y-5029286D01*
X-10905715Y-5143571D01*
X-10848572Y-5200714D01*
X-10734286Y-5257857D01*
X-10620001Y-5257857D01*
X-10505715Y-5200714D01*
X-10448572Y-5143571D01*
X-10391429Y-5029286D01*
X-10334286Y-4800714D01*
X-10334286Y-4515000D01*
X-10391429Y-4286429D01*
X-10448572Y-4172143D01*
X-10505715Y-4115000D01*
X-10620001Y-4057857D01*
X-12105715Y-4057857D02*
X-11534286Y-4057857D01*
X-11477143Y-4629286D01*
X-11534286Y-4572143D01*
X-11648572Y-4515000D01*
X-11934286Y-4515000D01*
X-12048572Y-4572143D01*
X-12105715Y-4629286D01*
X-12162858Y-4743571D01*
X-12162858Y-5029286D01*
X-12105715Y-5143571D01*
X-12048572Y-5200714D01*
X-11934286Y-5257857D01*
X-11648572Y-5257857D01*
X-11534286Y-5200714D01*
X-11477143Y-5143571D01*
X-12620000Y-5200714D02*
X-12791429Y-5257857D01*
X-13077143Y-5257857D01*
X-13191429Y-5200714D01*
X-13248572Y-5143571D01*
X-13305715Y-5029286D01*
X-13305715Y-4915000D01*
X-13248572Y-4800714D01*
X-13191429Y-4743571D01*
X-13077143Y-4686429D01*
X-12848572Y-4629286D01*
X-12734286Y-4572143D01*
X-12677143Y-4515000D01*
X-12620000Y-4400714D01*
X-12620000Y-4286429D01*
X-12677143Y-4172143D01*
X-12734286Y-4115000D01*
X-12848572Y-4057857D01*
X-13134286Y-4057857D01*
X-13305715Y-4115000D01*
X-13820000Y-5257857D02*
X-13820000Y-4057857D01*
X-14220000Y-4915000D01*
X-14620000Y-4057857D01*
X-14620000Y-5257857D01*
X-4020001Y-7257857D02*
X-4020001Y-6057857D01*
X-4020001Y-6515000D02*
X-4134287Y-6457857D01*
X-4362858Y-6457857D01*
X-4477144Y-6515000D01*
X-4534287Y-6572143D01*
X-4591430Y-6686429D01*
X-4591430Y-7029286D01*
X-4534287Y-7143571D01*
X-4477144Y-7200714D01*
X-4362858Y-7257857D01*
X-4134287Y-7257857D01*
X-4020001Y-7200714D01*
X-5105715Y-7257857D02*
X-5105715Y-6457857D01*
X-5105715Y-6686429D02*
X-5162858Y-6572143D01*
X-5220001Y-6515000D01*
X-5334287Y-6457857D01*
X-5448572Y-6457857D01*
X-6305715Y-7200714D02*
X-6191429Y-7257857D01*
X-5962858Y-7257857D01*
X-5848572Y-7200714D01*
X-5791429Y-7086429D01*
X-5791429Y-6629286D01*
X-5848572Y-6515000D01*
X-5962858Y-6457857D01*
X-6191429Y-6457857D01*
X-6305715Y-6515000D01*
X-6362858Y-6629286D01*
X-6362858Y-6743571D01*
X-5791429Y-6857857D01*
X-7391429Y-7257857D02*
X-7391429Y-6629286D01*
X-7334286Y-6515000D01*
X-7220000Y-6457857D01*
X-6991429Y-6457857D01*
X-6877143Y-6515000D01*
X-7391429Y-7200714D02*
X-7277143Y-7257857D01*
X-6991429Y-7257857D01*
X-6877143Y-7200714D01*
X-6820000Y-7086429D01*
X-6820000Y-6972143D01*
X-6877143Y-6857857D01*
X-6991429Y-6800714D01*
X-7277143Y-6800714D01*
X-7391429Y-6743571D01*
X-7962857Y-7257857D02*
X-7962857Y-6057857D01*
X-8077143Y-6800714D02*
X-8420000Y-7257857D01*
X-8420000Y-6457857D02*
X-7962857Y-6915000D01*
X-9105715Y-7257857D02*
X-8991429Y-7200714D01*
X-8934286Y-7143571D01*
X-8877143Y-7029286D01*
X-8877143Y-6686429D01*
X-8934286Y-6572143D01*
X-8991429Y-6515000D01*
X-9105715Y-6457857D01*
X-9277143Y-6457857D01*
X-9391429Y-6515000D01*
X-9448572Y-6572143D01*
X-9505715Y-6686429D01*
X-9505715Y-7029286D01*
X-9448572Y-7143571D01*
X-9391429Y-7200714D01*
X-9277143Y-7257857D01*
X-9105715Y-7257857D01*
X-10534286Y-6457857D02*
X-10534286Y-7257857D01*
X-10020000Y-6457857D02*
X-10020000Y-7086429D01*
X-10077143Y-7200714D01*
X-10191429Y-7257857D01*
X-10362857Y-7257857D01*
X-10477143Y-7200714D01*
X-10534286Y-7143571D01*
X-10934286Y-6457857D02*
X-11391429Y-6457857D01*
X-11105714Y-6057857D02*
X-11105714Y-7086429D01*
X-11162857Y-7200714D01*
X-11277143Y-7257857D01*
X-11391429Y-7257857D01*
D12*
X-6477143Y-9410000D02*
X-6334286Y-9338571D01*
X-6120000Y-9338571D01*
X-5905715Y-9410000D01*
X-5762857Y-9552857D01*
X-5691429Y-9695714D01*
X-5620000Y-9981429D01*
X-5620000Y-10195714D01*
X-5691429Y-10481429D01*
X-5762857Y-10624286D01*
X-5905715Y-10767143D01*
X-6120000Y-10838571D01*
X-6262857Y-10838571D01*
X-6477143Y-10767143D01*
X-6548572Y-10695714D01*
X-6548572Y-10195714D01*
X-6262857Y-10195714D01*
X-7191429Y-10838571D02*
X-7191429Y-9338571D01*
X-8048572Y-10838571D01*
X-8048572Y-9338571D01*
X-8762858Y-10838571D02*
X-8762858Y-9338571D01*
X-9120001Y-9338571D01*
X-9334286Y-9410000D01*
X-9477144Y-9552857D01*
X-9548572Y-9695714D01*
X-9620001Y-9981429D01*
X-9620001Y-10195714D01*
X-9548572Y-10481429D01*
X-9477144Y-10624286D01*
X-9334286Y-10767143D01*
X-9120001Y-10838571D01*
X-8762858Y-10838571D01*
X-21717143Y-9410000D02*
X-21574286Y-9338571D01*
X-21360000Y-9338571D01*
X-21145715Y-9410000D01*
X-21002857Y-9552857D01*
X-20931429Y-9695714D01*
X-20860000Y-9981429D01*
X-20860000Y-10195714D01*
X-20931429Y-10481429D01*
X-21002857Y-10624286D01*
X-21145715Y-10767143D01*
X-21360000Y-10838571D01*
X-21502857Y-10838571D01*
X-21717143Y-10767143D01*
X-21788572Y-10695714D01*
X-21788572Y-10195714D01*
X-21502857Y-10195714D01*
X-22431429Y-10838571D02*
X-22431429Y-9338571D01*
X-23288572Y-10838571D01*
X-23288572Y-9338571D01*
X-24002858Y-10838571D02*
X-24002858Y-9338571D01*
X-24360001Y-9338571D01*
X-24574286Y-9410000D01*
X-24717144Y-9552857D01*
X-24788572Y-9695714D01*
X-24860001Y-9981429D01*
X-24860001Y-10195714D01*
X-24788572Y-10481429D01*
X-24717144Y-10624286D01*
X-24574286Y-10767143D01*
X-24360001Y-10838571D01*
X-24002858Y-10838571D01*
X-21145714Y-5758571D02*
X-21145714Y-4258571D01*
X-21860000Y-5758571D02*
X-21860000Y-4258571D01*
X-22717143Y-5758571D01*
X-22717143Y-4258571D01*
X-23431429Y-5187143D02*
X-24574286Y-5187143D01*
X-24002857Y-5758571D02*
X-24002857Y-4615714D01*
X-5445428Y-14418571D02*
X-5731142Y-14418571D01*
X-5874000Y-14490000D01*
X-6016857Y-14632857D01*
X-6088285Y-14918571D01*
X-6088285Y-15418571D01*
X-6016857Y-15704286D01*
X-5874000Y-15847143D01*
X-5731142Y-15918571D01*
X-5445428Y-15918571D01*
X-5302571Y-15847143D01*
X-5159714Y-15704286D01*
X-5088285Y-15418571D01*
X-5088285Y-14918571D01*
X-5159714Y-14632857D01*
X-5302571Y-14490000D01*
X-5445428Y-14418571D01*
X-6731143Y-14418571D02*
X-6731143Y-15632857D01*
X-6802571Y-15775714D01*
X-6874000Y-15847143D01*
X-7016857Y-15918571D01*
X-7302571Y-15918571D01*
X-7445429Y-15847143D01*
X-7516857Y-15775714D01*
X-7588286Y-15632857D01*
X-7588286Y-14418571D01*
X-8088286Y-14418571D02*
X-8945429Y-14418571D01*
X-8516858Y-15918571D02*
X-8516858Y-14418571D01*
X-9445429Y-15347143D02*
X-10588286Y-15347143D01*
X-10016857Y-15918571D02*
X-10016857Y-14775714D01*
D11*
X-8405952Y-19216667D02*
X-8882143Y-19216667D01*
X-8310714Y-19502381D02*
X-8644047Y-18502381D01*
X-8977381Y-19502381D01*
X-9310714Y-19502381D02*
X-9310714Y-18502381D01*
X-9548809Y-18502381D01*
X-9691667Y-18550000D01*
X-9786905Y-18645238D01*
X-9834524Y-18740476D01*
X-9882143Y-18930952D01*
X-9882143Y-19073810D01*
X-9834524Y-19264286D01*
X-9786905Y-19359524D01*
X-9691667Y-19454762D01*
X-9548809Y-19502381D01*
X-9310714Y-19502381D01*
X-10596429Y-18502381D02*
X-10596429Y-19216667D01*
X-10548809Y-19359524D01*
X-10453571Y-19454762D01*
X-10310714Y-19502381D01*
X-10215476Y-19502381D01*
X-9421905Y-1198571D02*
X-9755239Y-1198571D01*
X-9898096Y-1722381D02*
X-9421905Y-1722381D01*
X-9421905Y-722381D01*
X-9898096Y-722381D01*
X-10326667Y-1722381D02*
X-10326667Y-722381D01*
X-10898096Y-1722381D01*
X-10898096Y-722381D01*
M02*
