G04 #@! TF.FileFunction,Legend,Top*
%FSLAX46Y46*%
G04 Gerber Fmt 4.6, Leading zero omitted, Abs format (unit mm)*
G04 Created by KiCad (PCBNEW 4.0.7) date 04/16/19 16:10:46*
%MOMM*%
%LPD*%
G01*
G04 APERTURE LIST*
%ADD10C,0.100000*%
%ADD11C,0.200000*%
%ADD12C,0.300000*%
%ADD13C,0.120000*%
%ADD14C,0.150000*%
G04 APERTURE END LIST*
D10*
D11*
X-10644048Y-19216667D02*
X-10167857Y-19216667D01*
X-10739286Y-19502381D02*
X-10405953Y-18502381D01*
X-10072619Y-19502381D01*
X-9739286Y-19502381D02*
X-9739286Y-18502381D01*
X-9501191Y-18502381D01*
X-9358333Y-18550000D01*
X-9263095Y-18645238D01*
X-9215476Y-18740476D01*
X-9167857Y-18930952D01*
X-9167857Y-19073810D01*
X-9215476Y-19264286D01*
X-9263095Y-19359524D01*
X-9358333Y-19454762D01*
X-9501191Y-19502381D01*
X-9739286Y-19502381D01*
X-8453571Y-18502381D02*
X-8453571Y-19216667D01*
X-8501191Y-19359524D01*
X-8596429Y-19454762D01*
X-8739286Y-19502381D01*
X-8834524Y-19502381D01*
X-10898095Y-1198571D02*
X-10564761Y-1198571D01*
X-10421904Y-1722381D02*
X-10898095Y-1722381D01*
X-10898095Y-722381D01*
X-10421904Y-722381D01*
X-9993333Y-1722381D02*
X-9993333Y-722381D01*
X-9421904Y-1722381D01*
X-9421904Y-722381D01*
D12*
X-4952857Y-5600000D02*
X-5095714Y-5528571D01*
X-5310000Y-5528571D01*
X-5524285Y-5600000D01*
X-5667143Y-5742857D01*
X-5738571Y-5885714D01*
X-5810000Y-6171429D01*
X-5810000Y-6385714D01*
X-5738571Y-6671429D01*
X-5667143Y-6814286D01*
X-5524285Y-6957143D01*
X-5310000Y-7028571D01*
X-5167143Y-7028571D01*
X-4952857Y-6957143D01*
X-4881428Y-6885714D01*
X-4881428Y-6385714D01*
X-5167143Y-6385714D01*
X-4238571Y-7028571D02*
X-4238571Y-5528571D01*
X-3381428Y-7028571D01*
X-3381428Y-5528571D01*
X-2667142Y-7028571D02*
X-2667142Y-5528571D01*
X-2309999Y-5528571D01*
X-2095714Y-5600000D01*
X-1952856Y-5742857D01*
X-1881428Y-5885714D01*
X-1809999Y-6171429D01*
X-1809999Y-6385714D01*
X-1881428Y-6671429D01*
X-1952856Y-6814286D01*
X-2095714Y-6957143D01*
X-2309999Y-7028571D01*
X-2667142Y-7028571D01*
X-6238572Y-18228571D02*
X-5952858Y-18228571D01*
X-5810000Y-18300000D01*
X-5667143Y-18442857D01*
X-5595715Y-18728571D01*
X-5595715Y-19228571D01*
X-5667143Y-19514286D01*
X-5810000Y-19657143D01*
X-5952858Y-19728571D01*
X-6238572Y-19728571D01*
X-6381429Y-19657143D01*
X-6524286Y-19514286D01*
X-6595715Y-19228571D01*
X-6595715Y-18728571D01*
X-6524286Y-18442857D01*
X-6381429Y-18300000D01*
X-6238572Y-18228571D01*
X-4952857Y-18228571D02*
X-4952857Y-19442857D01*
X-4881429Y-19585714D01*
X-4810000Y-19657143D01*
X-4667143Y-19728571D01*
X-4381429Y-19728571D01*
X-4238571Y-19657143D01*
X-4167143Y-19585714D01*
X-4095714Y-19442857D01*
X-4095714Y-18228571D01*
X-3595714Y-18228571D02*
X-2738571Y-18228571D01*
X-3167142Y-19728571D02*
X-3167142Y-18228571D01*
X-2238571Y-19157143D02*
X-1095714Y-19157143D01*
X-1667143Y-19728571D02*
X-1667143Y-18585714D01*
X-27812857Y-13220000D02*
X-27955714Y-13148571D01*
X-28170000Y-13148571D01*
X-28384285Y-13220000D01*
X-28527143Y-13362857D01*
X-28598571Y-13505714D01*
X-28670000Y-13791429D01*
X-28670000Y-14005714D01*
X-28598571Y-14291429D01*
X-28527143Y-14434286D01*
X-28384285Y-14577143D01*
X-28170000Y-14648571D01*
X-28027143Y-14648571D01*
X-27812857Y-14577143D01*
X-27741428Y-14505714D01*
X-27741428Y-14005714D01*
X-28027143Y-14005714D01*
X-27098571Y-14648571D02*
X-27098571Y-13148571D01*
X-26241428Y-14648571D01*
X-26241428Y-13148571D01*
X-25527142Y-14648571D02*
X-25527142Y-13148571D01*
X-25169999Y-13148571D01*
X-24955714Y-13220000D01*
X-24812856Y-13362857D01*
X-24741428Y-13505714D01*
X-24669999Y-13791429D01*
X-24669999Y-14005714D01*
X-24741428Y-14291429D01*
X-24812856Y-14434286D01*
X-24955714Y-14577143D01*
X-25169999Y-14648571D01*
X-25527142Y-14648571D01*
X-28384286Y-1948571D02*
X-28384286Y-448571D01*
X-27670000Y-1948571D02*
X-27670000Y-448571D01*
X-26812857Y-1948571D01*
X-26812857Y-448571D01*
X-26098571Y-1377143D02*
X-24955714Y-1377143D01*
X-25527143Y-1948571D02*
X-25527143Y-805714D01*
D13*
X-11370000Y-2600000D02*
X-11370000Y60000D01*
X-16510000Y-2600000D02*
X-11370000Y-2600000D01*
X-16510000Y60000D02*
X-11370000Y60000D01*
X-16510000Y-2600000D02*
X-16510000Y60000D01*
X-17780000Y-2600000D02*
X-19110000Y-2600000D01*
X-19110000Y-2600000D02*
X-19110000Y-1270000D01*
X-19198900Y-17720000D02*
X-19198900Y-20380000D01*
X-14058900Y-17720000D02*
X-19198900Y-17720000D01*
X-14058900Y-20380000D02*
X-19198900Y-20380000D01*
X-14058900Y-17720000D02*
X-14058900Y-20380000D01*
X-12788900Y-17720000D02*
X-11458900Y-17720000D01*
X-11458900Y-17720000D02*
X-11458900Y-19050000D01*
D14*
X-10668000Y-2540000D02*
X-19812000Y-2540000D01*
X-10668000Y-17780000D02*
X-10668000Y-2540000D01*
X-19812000Y-17780000D02*
X-10668000Y-17780000D01*
X-19812000Y-2540000D02*
X-19812000Y-17780000D01*
M02*
