<?xml version="1.0" standalone="no"?>
 <!DOCTYPE svg PUBLIC "-//W3C//DTD SVG 1.1//EN" 
 "http://www.w3.org/Graphics/SVG/1.1/DTD/svg11.dtd"> 
<svg xmlns="http://www.w3.org/2000/svg" version="1.1" 
    width="2.72542cm" height="3.0988cm" viewBox="0 0 10730 12200 ">
<title>SVG Picture created as mcp23017_breakout-B.Mask.svg date 2018/06/13 21:26:03 </title>
  <desc>Picture generated by PCBNEW </desc>
<g style="fill:#000000; fill-opacity:1;stroke:#000000; stroke-opacity:1;
stroke-linecap:round; stroke-linejoin:round; "
 transform="translate(0 0) scale(1 1)">
</g>
<g style="fill:#000000; fill-opacity:0.0; 
stroke:#000000; stroke-width:-0.000393701; stroke-opacity:1; 
stroke-linecap:round; stroke-linejoin:round;">
</g>
<g style="fill:#000000; fill-opacity:0.0; 
stroke:#000000; stroke-width:59.0551; stroke-opacity:1; 
stroke-linecap:round; stroke-linejoin:round;">
<path d="M1369 1369
L1369 11369
" />
<path d="M9369 1369
L1369 1369
" />
<path d="M9369 11369
L9369 1369
" />
<path d="M1369 11369
L9369 11369
" />
</g>
<g style="fill:#000000; fill-opacity:0.0; 
stroke:#000000; stroke-width:0; stroke-opacity:1; 
stroke-linecap:round; stroke-linejoin:round;">
</g>
<g style="fill:#000000; fill-opacity:1.0; 
stroke:#000000; stroke-width:0; stroke-opacity:1; 
stroke-linecap:round; stroke-linejoin:round;">
<polyline style="fill-rule:evenodd;"
points="2282,10455
2282,11282
1455,11282
1455,10455
2282,10455
" /> 
</g>
<g style="fill:#000000; fill-opacity:1.0; 
stroke:#000000; stroke-width:826.772; stroke-opacity:1; 
stroke-linecap:round; stroke-linejoin:round;">
</g>
<g style="fill:#000000; fill-opacity:0.0; 
stroke:#000000; stroke-width:826.772; stroke-opacity:1; 
stroke-linecap:round; stroke-linejoin:round;">
<path d="M1869 9869
L1869 9869
" />
<path d="M1869 8869
L1869 8869
" />
<path d="M1869 7869
L1869 7869
" />
<path d="M1869 6869
L1869 6869
" />
<path d="M1869 5869
L1869 5869
" />
<path d="M1869 4869
L1869 4869
" />
<path d="M1869 3869
L1869 3869
" />
<path d="M1869 2869
L1869 2869
" />
<path d="M1869 1869
L1869 1869
" />
</g>
<g style="fill:#000000; fill-opacity:0.0; 
stroke:#000000; stroke-width:0; stroke-opacity:1; 
stroke-linecap:round; stroke-linejoin:round;">
</g>
<g style="fill:#000000; fill-opacity:1.0; 
stroke:#000000; stroke-width:0; stroke-opacity:1; 
stroke-linecap:round; stroke-linejoin:round;">
<polyline style="fill-rule:evenodd;"
points="8455,2282
8455,1455
9282,1455
9282,2282
8455,2282
" /> 
</g>
<g style="fill:#000000; fill-opacity:1.0; 
stroke:#000000; stroke-width:826.772; stroke-opacity:1; 
stroke-linecap:round; stroke-linejoin:round;">
</g>
<g style="fill:#000000; fill-opacity:0.0; 
stroke:#000000; stroke-width:826.772; stroke-opacity:1; 
stroke-linecap:round; stroke-linejoin:round;">
<path d="M8869 2869
L8869 2869
" />
<path d="M8869 3869
L8869 3869
" />
<path d="M8869 4869
L8869 4869
" />
<path d="M8869 5869
L8869 5869
" />
<path d="M8869 6869
L8869 6869
" />
<path d="M8869 7869
L8869 7869
" />
<path d="M8869 8869
L8869 8869
" />
<path d="M8869 9869
L8869 9869
" />
<path d="M8869 10869
L8869 10869
" />
</g>
<g style="fill:#000000; fill-opacity:0.0; 
stroke:#000000; stroke-width:0; stroke-opacity:1; 
stroke-linecap:round; stroke-linejoin:round;">
</g>
<g style="fill:#000000; fill-opacity:1.0; 
stroke:#000000; stroke-width:0; stroke-opacity:1; 
stroke-linecap:round; stroke-linejoin:round;">
<polyline style="fill-rule:evenodd;"
points="4040,10388
4040,9849
4697,9849
4697,10388
4040,10388
" /> 
<polyline style="fill-rule:evenodd;"
points="4040,9888
4040,9349
4697,9349
4697,9888
4040,9888
" /> 
<polyline style="fill-rule:evenodd;"
points="4040,9388
4040,8849
4697,8849
4697,9388
4040,9388
" /> 
<polyline style="fill-rule:evenodd;"
points="5040,10388
5040,9849
5697,9849
5697,10388
5040,10388
" /> 
<polyline style="fill-rule:evenodd;"
points="5040,9888
5040,9349
5697,9349
5697,9888
5040,9888
" /> 
<polyline style="fill-rule:evenodd;"
points="5040,9388
5040,8849
5697,8849
5697,9388
5040,9388
" /> 
<polyline style="fill-rule:evenodd;"
points="6040,10388
6040,9849
6697,9849
6697,10388
6040,10388
" /> 
<polyline style="fill-rule:evenodd;"
points="6040,9888
6040,9349
6697,9349
6697,9888
6040,9888
" /> 
<polyline style="fill-rule:evenodd;"
points="6040,9388
6040,8849
6697,8849
6697,9388
6040,9388
" /> 
<polyline style="fill-rule:evenodd;"
points="6955,1455
7782,1455
7782,2282
6955,2282
6955,1455
" /> 
</g>
<g style="fill:#000000; fill-opacity:1.0; 
stroke:#000000; stroke-width:826.772; stroke-opacity:1; 
stroke-linecap:round; stroke-linejoin:round;">
</g>
<g style="fill:#000000; fill-opacity:0.0; 
stroke:#000000; stroke-width:826.772; stroke-opacity:1; 
stroke-linecap:round; stroke-linejoin:round;">
<path d="M6369 1869
L6369 1869
" />
<path d="M5369 1869
L5369 1869
" />
<path d="M4369 1869
L4369 1869
" />
<path d="M3369 1869
L3369 1869
" />
</g>
<g style="fill:#000000; fill-opacity:0.0; 
stroke:#000000; stroke-width:0; stroke-opacity:1; 
stroke-linecap:round; stroke-linejoin:round;">
</g>
<g style="fill:#000000; fill-opacity:1.0; 
stroke:#000000; stroke-width:0; stroke-opacity:1; 
stroke-linecap:round; stroke-linejoin:round;">
<polyline style="fill-rule:evenodd;"
points="5880,7330
5880,6791
6537,6791
6537,7330
5880,7330
" /> 
<polyline style="fill-rule:evenodd;"
points="5880,6826
5880,6287
6537,6287
6537,6826
5880,6826
" /> 
<polyline style="fill-rule:evenodd;"
points="5703,4306
5034,4306
5034,3558
5703,3558
5703,4306
" /> 
<polyline style="fill-rule:evenodd;"
points="5703,3243
5034,3243
5034,2495
5703,2495
5703,3243
" /> 
<polyline style="fill-rule:evenodd;"
points="6703,4306
6034,4306
6034,3558
6703,3558
6703,4306
" /> 
<polyline style="fill-rule:evenodd;"
points="6703,3243
6034,3243
6034,2495
6703,2495
6703,3243
" /> 
<polyline style="fill-rule:evenodd;"
points="4703,4306
4034,4306
4034,3558
4703,3558
4703,4306
" /> 
<polyline style="fill-rule:evenodd;"
points="4703,3243
4034,3243
4034,2495
4703,2495
4703,3243
" /> 
</g> 
</svg>
