<?xml version="1.0" standalone="no"?>
 <!DOCTYPE svg PUBLIC "-//W3C//DTD SVG 1.1//EN" 
 "http://www.w3.org/Graphics/SVG/1.1/DTD/svg11.dtd"> 
<svg xmlns="http://www.w3.org/2000/svg" version="1.1" 
    width="2.72542cm" height="3.0988cm" viewBox="0 0 10730 12200 ">
<title>SVG Picture created as mcp23017_breakout-F.Mask.svg date 2018/06/13 21:26:03 </title>
  <desc>Picture generated by PCBNEW </desc>
<g style="fill:#000000; fill-opacity:1;stroke:#000000; stroke-opacity:1;
stroke-linecap:round; stroke-linejoin:round; "
 transform="translate(0 0) scale(1 1)">
</g>
<g style="fill:#000000; fill-opacity:0.0; 
stroke:#000000; stroke-width:-0.000393701; stroke-opacity:1; 
stroke-linecap:round; stroke-linejoin:round;">
</g>
<g style="fill:#000000; fill-opacity:0.0; 
stroke:#000000; stroke-width:59.0551; stroke-opacity:1; 
stroke-linecap:round; stroke-linejoin:round;">
<path d="M1369 1369
L1369 11369
" />
<path d="M9369 1369
L1369 1369
" />
<path d="M9369 11369
L9369 1369
" />
<path d="M1369 11369
L9369 11369
" />
</g>
<g style="fill:#000000; fill-opacity:0.0; 
stroke:#000000; stroke-width:0; stroke-opacity:1; 
stroke-linecap:round; stroke-linejoin:round;">
</g>
<g style="fill:#000000; fill-opacity:1.0; 
stroke:#000000; stroke-width:0; stroke-opacity:1; 
stroke-linecap:round; stroke-linejoin:round;">
<polyline style="fill-rule:evenodd;"
points="3445,4816
3445,4481
4292,4481
4292,4816
3445,4816
" /> 
<polyline style="fill-rule:evenodd;"
points="3445,5072
3445,4737
4292,4737
4292,5072
3445,5072
" /> 
<polyline style="fill-rule:evenodd;"
points="3445,5328
3445,4993
4292,4993
4292,5328
3445,5328
" /> 
<polyline style="fill-rule:evenodd;"
points="3445,5584
3445,5249
4292,5249
4292,5584
3445,5584
" /> 
<polyline style="fill-rule:evenodd;"
points="3445,5840
3445,5505
4292,5505
4292,5840
3445,5840
" /> 
<polyline style="fill-rule:evenodd;"
points="3445,6095
3445,5761
4292,5761
4292,6095
3445,6095
" /> 
<polyline style="fill-rule:evenodd;"
points="3445,6351
3445,6017
4292,6017
4292,6351
3445,6351
" /> 
<polyline style="fill-rule:evenodd;"
points="3445,6607
3445,6273
4292,6273
4292,6607
3445,6607
" /> 
<polyline style="fill-rule:evenodd;"
points="3445,6863
3445,6529
4292,6529
4292,6863
3445,6863
" /> 
<polyline style="fill-rule:evenodd;"
points="3445,7119
3445,6784
4292,6784
4292,7119
3445,7119
" /> 
<polyline style="fill-rule:evenodd;"
points="3445,7375
3445,7040
4292,7040
4292,7375
3445,7375
" /> 
<polyline style="fill-rule:evenodd;"
points="3445,7631
3445,7296
4292,7296
4292,7631
3445,7631
" /> 
<polyline style="fill-rule:evenodd;"
points="3445,7887
3445,7552
4292,7552
4292,7887
3445,7887
" /> 
<polyline style="fill-rule:evenodd;"
points="3445,8143
3445,7808
4292,7808
4292,8143
3445,8143
" /> 
<polyline style="fill-rule:evenodd;"
points="6280,8143
6280,7808
7127,7808
7127,8143
6280,8143
" /> 
<polyline style="fill-rule:evenodd;"
points="6280,7887
6280,7552
7127,7552
7127,7887
6280,7887
" /> 
<polyline style="fill-rule:evenodd;"
points="6280,7631
6280,7296
7127,7296
7127,7631
6280,7631
" /> 
<polyline style="fill-rule:evenodd;"
points="6280,7375
6280,7040
7127,7040
7127,7375
6280,7375
" /> 
<polyline style="fill-rule:evenodd;"
points="6280,7119
6280,6784
7127,6784
7127,7119
6280,7119
" /> 
<polyline style="fill-rule:evenodd;"
points="6280,6863
6280,6529
7127,6529
7127,6863
6280,6863
" /> 
<polyline style="fill-rule:evenodd;"
points="6280,6607
6280,6273
7127,6273
7127,6607
6280,6607
" /> 
<polyline style="fill-rule:evenodd;"
points="6280,6351
6280,6017
7127,6017
7127,6351
6280,6351
" /> 
<polyline style="fill-rule:evenodd;"
points="6280,6095
6280,5761
7127,5761
7127,6095
6280,6095
" /> 
<polyline style="fill-rule:evenodd;"
points="6280,5840
6280,5505
7127,5505
7127,5840
6280,5840
" /> 
<polyline style="fill-rule:evenodd;"
points="6280,5584
6280,5249
7127,5249
7127,5584
6280,5584
" /> 
<polyline style="fill-rule:evenodd;"
points="6280,5328
6280,4993
7127,4993
7127,5328
6280,5328
" /> 
<polyline style="fill-rule:evenodd;"
points="6280,5072
6280,4737
7127,4737
7127,5072
6280,5072
" /> 
<polyline style="fill-rule:evenodd;"
points="6280,4816
6280,4481
7127,4481
7127,4816
6280,4816
" /> 
<polyline style="fill-rule:evenodd;"
points="6235,3544
6235,4193
5487,4193
5487,3544
6235,3544
" /> 
<polyline style="fill-rule:evenodd;"
points="5251,3544
5251,4193
4502,4193
4502,3544
5251,3544
" /> 
<polyline style="fill-rule:evenodd;"
points="2282,10455
2282,11282
1455,11282
1455,10455
2282,10455
" /> 
</g>
<g style="fill:#000000; fill-opacity:1.0; 
stroke:#000000; stroke-width:826.772; stroke-opacity:1; 
stroke-linecap:round; stroke-linejoin:round;">
</g>
<g style="fill:#000000; fill-opacity:0.0; 
stroke:#000000; stroke-width:826.772; stroke-opacity:1; 
stroke-linecap:round; stroke-linejoin:round;">
<path d="M1869 9869
L1869 9869
" />
<path d="M1869 8869
L1869 8869
" />
<path d="M1869 7869
L1869 7869
" />
<path d="M1869 6869
L1869 6869
" />
<path d="M1869 5869
L1869 5869
" />
<path d="M1869 4869
L1869 4869
" />
<path d="M1869 3869
L1869 3869
" />
<path d="M1869 2869
L1869 2869
" />
<path d="M1869 1869
L1869 1869
" />
</g>
<g style="fill:#000000; fill-opacity:0.0; 
stroke:#000000; stroke-width:0; stroke-opacity:1; 
stroke-linecap:round; stroke-linejoin:round;">
</g>
<g style="fill:#000000; fill-opacity:1.0; 
stroke:#000000; stroke-width:0; stroke-opacity:1; 
stroke-linecap:round; stroke-linejoin:round;">
<polyline style="fill-rule:evenodd;"
points="8455,2282
8455,1455
9282,1455
9282,2282
8455,2282
" /> 
</g>
<g style="fill:#000000; fill-opacity:1.0; 
stroke:#000000; stroke-width:826.772; stroke-opacity:1; 
stroke-linecap:round; stroke-linejoin:round;">
</g>
<g style="fill:#000000; fill-opacity:0.0; 
stroke:#000000; stroke-width:826.772; stroke-opacity:1; 
stroke-linecap:round; stroke-linejoin:round;">
<path d="M8869 2869
L8869 2869
" />
<path d="M8869 3869
L8869 3869
" />
<path d="M8869 4869
L8869 4869
" />
<path d="M8869 5869
L8869 5869
" />
<path d="M8869 6869
L8869 6869
" />
<path d="M8869 7869
L8869 7869
" />
<path d="M8869 8869
L8869 8869
" />
<path d="M8869 9869
L8869 9869
" />
<path d="M8869 10869
L8869 10869
" />
</g>
<g style="fill:#000000; fill-opacity:0.0; 
stroke:#000000; stroke-width:0; stroke-opacity:1; 
stroke-linecap:round; stroke-linejoin:round;">
</g>
<g style="fill:#000000; fill-opacity:1.0; 
stroke:#000000; stroke-width:0; stroke-opacity:1; 
stroke-linecap:round; stroke-linejoin:round;">
<polyline style="fill-rule:evenodd;"
points="6955,1455
7782,1455
7782,2282
6955,2282
6955,1455
" /> 
</g>
<g style="fill:#000000; fill-opacity:1.0; 
stroke:#000000; stroke-width:826.772; stroke-opacity:1; 
stroke-linecap:round; stroke-linejoin:round;">
</g>
<g style="fill:#000000; fill-opacity:0.0; 
stroke:#000000; stroke-width:826.772; stroke-opacity:1; 
stroke-linecap:round; stroke-linejoin:round;">
<path d="M6369 1869
L6369 1869
" />
<path d="M5369 1869
L5369 1869
" />
<path d="M4369 1869
L4369 1869
" />
<path d="M3369 1869
L3369 1869
" />
</g> 
</svg>
